{"glyphs":{"0":{"ha":814,"x_min":136,"x_max":678,"o":"m 136 425 q 197 705 136 575 q 407 868 274 868 q 617 705 540 868 q 678 425 678 575 q 617 144 678 273 q 407 -20 541 -20 q 197 144 273 -20 q 136 425 136 273 m 217 423 q 258 201 217 307 q 407 61 311 61 q 556 201 503 61 q 597 423 597 307 q 556 646 597 540 q 407 787 503 787 q 256 646 311 787 q 217 423 217 540 z "},"1":{"ha":814,"x_min":136,"x_max":678,"o":"m 678 0 l 136 0 l 136 81 l 366 81 l 366 627 l 160 533 l 140 587 q 290 703 220 628 q 393 861 359 779 l 448 861 l 448 81 l 678 81 l 678 0 z "},"2":{"ha":814,"x_min":136,"x_max":686,"o":"m 686 602 q 589 392 686 464 l 217 118 l 217 81 l 604 81 l 604 206 l 685 206 l 685 0 l 136 0 l 136 176 l 515 442 q 600 608 600 500 q 545 738 600 689 q 410 787 491 787 q 293 749 342 787 q 240 642 240 707 l 157 642 l 156 723 q 258 829 180 787 q 404 868 330 868 q 602 795 521 868 q 686 602 686 718 z "},"3":{"ha":814,"x_min":134,"x_max":678,"o":"m 678 233 q 596 52 678 123 q 403 -20 514 -20 q 134 49 294 -20 l 167 126 q 391 61 289 61 q 535 113 473 61 q 597 245 597 164 q 528 368 597 319 q 389 411 465 411 l 345 411 l 345 490 l 385 490 q 503 538 450 490 q 556 650 556 586 q 500 751 556 712 q 387 787 452 787 q 194 709 283 787 l 152 780 q 389 868 285 868 q 560 814 490 868 q 637 655 637 753 q 528 461 637 524 q 637 372 597 434 q 678 233 678 309 z "},"4":{"ha":814,"x_min":114,"x_max":700,"o":"m 700 0 l 304 0 l 304 81 l 488 81 l 488 190 l 114 190 l 114 279 l 456 861 l 570 861 l 570 271 l 700 271 l 700 190 l 570 190 l 570 81 l 700 81 l 700 0 m 488 760 l 202 271 l 488 271 l 488 760 z "},"5":{"ha":814,"x_min":117,"x_max":681,"o":"m 681 266 q 600 58 681 137 q 391 -20 519 -20 q 117 47 271 -20 l 149 122 q 376 61 297 61 q 536 111 477 61 q 600 264 600 165 q 537 408 600 358 q 382 454 479 454 q 205 391 289 454 l 160 415 l 160 861 l 631 861 l 631 780 l 241 780 l 241 503 q 410 537 316 537 q 604 460 526 537 q 681 266 681 382 z "},"6":{"ha":814,"x_min":136,"x_max":678,"o":"m 678 254 q 613 64 678 144 q 435 -20 543 -20 q 212 87 296 -20 q 136 328 136 184 q 229 701 136 564 q 566 861 339 861 l 678 861 l 678 780 q 490 770 536 780 q 224 420 248 720 q 430 518 301 518 q 608 440 537 518 q 678 254 678 362 m 595 240 q 552 374 595 316 q 430 437 503 437 q 310 392 366 437 q 231 285 254 347 q 285 133 232 198 q 426 61 342 61 q 549 112 502 61 q 595 240 595 163 z "},"7":{"ha":814,"x_min":122,"x_max":678,"o":"m 678 757 l 419 0 l 334 0 l 602 780 l 203 780 l 203 640 l 122 640 l 122 861 l 678 861 l 678 757 z "},"8":{"ha":814,"x_min":129,"x_max":685,"o":"m 490 488 q 583 637 583 559 q 528 747 583 704 q 407 787 476 787 q 286 747 338 787 q 231 637 231 704 q 270 519 231 556 q 366 488 301 492 q 490 488 429 488 m 241 435 q 174 528 199 468 q 149 637 149 582 q 229 804 149 736 q 407 868 307 868 q 585 804 507 868 q 665 637 665 736 q 575 456 665 528 q 685 237 685 374 q 606 49 685 118 q 407 -20 528 -20 q 208 49 286 -20 q 129 237 129 118 q 241 435 129 338 m 604 237 q 561 357 604 308 q 448 407 518 407 l 321 407 q 210 237 210 313 q 267 109 210 156 q 407 61 324 61 q 547 108 491 61 q 604 237 604 155 z "},"9":{"ha":814,"x_min":136,"x_max":678,"o":"m 136 594 q 201 784 136 704 q 378 868 271 868 q 602 762 519 868 q 678 519 678 665 q 585 146 678 283 q 248 -14 475 -14 l 136 -14 l 136 68 q 324 77 278 68 q 590 427 566 126 q 384 330 513 330 q 207 408 278 330 q 136 594 136 487 m 218 608 q 262 473 218 532 q 384 411 311 411 q 506 457 448 411 q 583 563 560 500 q 529 715 582 650 q 388 787 472 787 q 265 736 312 787 q 218 608 218 685 z "}," ":{"ha":386,"x_min":0,"x_max":0,"o":""}," ":{"ha":386,"x_min":0,"x_max":0,"o":""},"!":{"ha":814,"x_min":313,"x_max":500,"o":"m 471 780 l 448 254 l 366 254 l 346 780 l 471 780 m 500 54 q 473 -5 500 18 q 407 -27 445 -27 q 341 -5 369 -27 q 313 54 313 18 q 341 114 313 91 q 407 137 369 137 q 473 114 445 137 q 500 54 500 91 z "},"\"":{"ha":814,"x_min":221,"x_max":591,"o":"m 543 438 l 475 438 l 426 779 q 450 826 425 808 q 509 844 476 844 q 566 826 541 844 q 591 779 591 808 l 543 438 m 339 438 l 271 438 l 222 779 q 247 826 221 808 q 305 844 273 844 q 363 826 338 844 q 388 779 388 808 l 339 438 z "},"#":{"ha":814,"x_min":62,"x_max":751,"o":"m 673 224 l 537 224 l 480 -47 l 399 -47 l 456 224 l 279 224 l 222 -47 l 141 -47 l 198 224 l 62 224 l 80 305 l 216 305 l 259 509 l 123 509 l 141 590 l 277 590 l 334 861 l 415 861 l 358 590 l 534 590 l 591 861 l 673 861 l 616 590 l 751 590 l 734 509 l 598 509 l 555 305 l 690 305 l 673 224 m 517 509 l 340 509 l 297 305 l 473 305 l 517 509 z "},"$":{"ha":814,"x_min":114,"x_max":705,"o":"m 407 407 m 448 -19 l 448 -163 l 366 -163 l 366 -19 q 209 42 266 -9 q 194 -20 203 14 l 114 0 q 132 110 132 69 q 122 190 132 144 l 201 203 l 201 203 l 203 203 q 407 61 244 61 q 624 210 624 61 q 373 366 624 366 q 205 429 274 366 q 136 590 136 492 q 209 735 136 680 q 366 792 273 784 l 366 936 l 448 936 l 448 792 q 595 751 541 787 q 604 793 598 772 l 682 780 q 673 700 673 734 q 681 631 673 671 q 690 590 686 612 l 610 570 q 602 602 608 581 q 529 694 581 671 q 407 712 491 712 q 283 688 335 712 q 217 590 217 655 q 441 448 217 448 q 625 387 552 448 q 705 213 705 321 q 448 -19 705 -4 z "},"%":{"ha":814,"x_min":103,"x_max":713,"o":"m 509 659 q 450 522 509 576 q 307 468 391 468 q 163 522 222 468 q 103 659 103 575 q 163 796 103 742 q 307 850 222 850 q 450 796 391 850 q 509 659 509 742 m 431 659 q 393 745 431 708 q 307 781 355 781 q 219 745 258 781 q 180 659 180 708 q 219 574 180 610 q 307 537 258 537 q 393 574 355 537 q 431 659 431 610 m 713 511 l 136 254 l 104 323 l 681 581 l 713 511 m 696 164 q 637 27 696 81 q 494 -27 578 -27 q 350 26 410 -27 q 290 164 290 80 q 350 302 290 248 q 494 355 410 355 q 637 301 578 355 q 696 164 696 247 m 618 164 q 581 250 618 213 q 494 286 543 286 q 406 250 445 286 q 368 164 368 213 q 406 79 368 115 q 494 42 445 42 q 581 79 543 42 q 618 164 618 115 z "},"&":{"ha":814,"x_min":75,"x_max":738,"o":"m 439 136 l 282 366 q 210 307 243 339 q 156 198 156 250 q 197 104 156 146 q 288 61 237 61 q 439 136 378 61 m 530 0 l 486 66 q 282 -20 399 -20 q 135 43 195 -20 q 75 194 75 107 q 134 346 75 270 q 235 437 178 401 q 163 627 163 552 q 216 745 163 697 q 340 793 269 793 q 549 720 433 793 l 500 661 q 350 718 418 718 q 277 692 311 718 q 244 629 244 667 q 331 439 244 568 l 484 212 q 511 288 499 245 l 545 407 l 716 407 l 716 326 l 610 326 l 591 256 q 538 133 572 187 l 572 81 l 738 81 l 738 0 l 530 0 z "},"'":{"ha":814,"x_min":323,"x_max":490,"o":"m 441 438 l 373 438 l 324 779 q 349 826 323 808 q 407 844 374 844 q 465 826 439 844 q 490 779 490 808 l 441 438 z "},"(":{"ha":814,"x_min":260,"x_max":567,"o":"m 567 -156 l 491 -156 q 260 350 260 180 q 491 861 260 525 l 567 861 q 435 612 448 639 q 369 350 369 463 q 435 91 369 236 q 567 -156 438 84 z "},")":{"ha":814,"x_min":247,"x_max":553,"o":"m 247 -156 l 378 91 q 445 350 445 236 q 378 612 445 463 q 247 861 366 639 l 323 861 q 553 350 553 525 q 323 -156 553 180 l 247 -156 z "},"*":{"ha":814,"x_min":164,"x_max":651,"o":"m 380 528 l 208 408 l 164 484 l 353 574 l 164 665 l 208 739 l 380 621 l 363 830 l 450 830 l 434 621 l 380 621 l 353 574 l 380 528 m 435 621 l 608 741 l 651 665 l 463 575 l 651 484 l 608 410 l 435 528 l 452 319 l 365 319 l 381 528 l 435 528 l 463 575 l 435 621 z "},"+":{"ha":814,"x_min":102,"x_max":712,"o":"m 712 366 l 448 366 l 448 102 l 366 102 l 366 366 l 102 366 l 102 448 l 366 448 l 366 712 l 448 712 l 448 448 l 712 448 l 712 366 z "},",":{"ha":814,"x_min":304,"x_max":524,"o":"m 505 -26 q 304 -217 465 -165 l 304 -146 l 354 -129 q 425 -54 425 -102 q 374 -22 425 -31 q 304 66 304 -9 q 335 131 304 106 q 407 156 366 156 q 505 91 477 156 q 505 -26 524 43 z "},"-":{"ha":814,"x_min":163,"x_max":651,"o":"m 651 271 l 163 271 l 163 353 l 651 353 l 651 271 z "},"­":{"ha":814,"x_min":163,"x_max":651,"o":"m 651 271 l 163 271 l 163 353 l 651 353 l 651 271 z "},".":{"ha":833,"x_min":313,"x_max":521,"o":"m 404 163 l 429 163 q 494 136 467 163 q 521 71 521 109 q 494 6 521 33 q 429 -21 467 -21 l 404 -21 q 339 6 366 -21 q 313 71 313 33 q 339 136 313 109 q 404 163 366 163 z "},"/":{"ha":814,"x_min":161,"x_max":652,"o":"m 579 894 l 652 861 l 235 -80 l 161 -47 l 579 894 z "},":":{"ha":814,"x_min":304,"x_max":510,"o":"m 510 438 q 479 373 510 399 q 407 347 448 347 q 335 373 366 347 q 304 438 304 399 q 334 504 304 479 q 407 529 365 529 q 479 504 449 529 q 510 438 510 479 m 510 64 q 479 -1 510 24 q 407 -27 448 -27 q 335 -1 366 -27 q 304 64 304 24 q 334 130 304 104 q 407 155 365 155 q 479 130 449 155 q 510 64 510 104 z "},";":{"ha":814,"x_min":304,"x_max":524,"o":"m 505 -26 q 304 -217 465 -165 l 304 -146 l 354 -129 q 425 -54 425 -102 q 374 -22 425 -31 q 304 66 304 -9 q 335 131 304 106 q 407 156 366 156 q 505 91 477 156 q 505 -26 524 43 m 510 438 q 479 373 510 399 q 407 347 448 347 q 335 373 366 347 q 304 438 304 399 q 334 504 304 479 q 407 529 365 529 q 479 504 449 529 q 510 438 510 479 z "},";":{"ha":814,"x_min":304,"x_max":524,"o":"m 505 -26 q 304 -217 465 -165 l 304 -146 l 354 -129 q 425 -54 425 -102 q 374 -22 425 -31 q 304 66 304 -9 q 335 131 304 106 q 407 156 366 156 q 505 91 477 156 q 505 -26 524 43 m 510 438 q 479 373 510 399 q 407 347 448 347 q 335 373 366 347 q 304 438 304 399 q 334 504 304 479 q 407 529 365 529 q 479 504 449 529 q 510 438 510 479 z "},"<":{"ha":814,"x_min":190,"x_max":614,"o":"m 614 126 l 583 81 l 190 353 l 583 624 l 614 579 l 366 353 l 614 126 z "},"=":{"ha":814,"x_min":102,"x_max":712,"o":"m 712 488 l 102 488 l 102 570 l 712 570 l 712 488 m 712 244 l 102 244 l 102 326 l 712 326 l 712 244 z "},">":{"ha":814,"x_min":199,"x_max":624,"o":"m 199 126 l 448 353 l 199 579 l 231 624 l 624 353 l 231 81 l 199 126 z "},"?":{"ha":814,"x_min":168,"x_max":674,"o":"m 674 559 q 423 316 674 377 l 423 231 l 340 231 l 340 380 q 587 562 587 429 q 526 669 587 631 q 400 700 473 700 q 251 667 328 700 l 251 589 l 168 589 l 168 735 q 397 783 308 783 q 586 727 509 783 q 674 559 674 666 m 484 54 q 456 -5 484 18 q 391 -27 429 -27 q 325 -5 353 -27 q 297 54 297 18 q 325 114 297 91 q 391 137 353 137 q 456 114 429 137 q 484 54 484 91 z "},"@":{"ha":833,"x_min":97,"x_max":733,"o":"m 733 501 l 733 119 l 654 119 l 654 150 q 514 107 581 107 q 365 160 420 107 q 309 302 309 214 q 381 460 309 400 q 585 519 454 519 q 653 515 623 519 q 598 684 653 621 q 437 747 543 747 q 241 646 307 747 q 176 342 176 545 q 240 37 176 138 q 431 -65 303 -65 q 672 5 547 -65 l 707 -47 q 431 -134 563 -134 q 183 -13 269 -134 q 97 342 97 109 q 184 695 97 575 q 437 815 272 815 q 654 729 575 815 q 733 501 733 642 m 654 216 l 654 446 q 587 452 629 452 q 437 414 487 452 q 387 302 387 377 q 419 207 387 239 q 515 175 451 175 q 654 216 583 175 z "},"A":{"ha":814,"x_min":0,"x_max":814,"o":"m 814 0 l 543 0 l 543 81 l 651 81 l 583 244 l 231 244 l 163 81 l 271 81 l 271 0 l 0 0 l 0 81 l 75 81 l 332 699 l 142 699 l 142 780 l 446 780 l 739 81 l 814 81 l 814 0 m 549 326 l 407 662 l 264 326 l 549 326 z "},"B":{"ha":814,"x_min":52,"x_max":765,"o":"m 765 205 q 680 47 765 103 q 500 0 606 0 l 52 0 l 52 81 l 172 81 l 172 699 l 52 699 l 52 780 l 448 780 q 629 736 559 780 q 716 579 716 684 q 598 410 716 458 q 765 205 765 366 m 629 568 q 566 671 629 636 q 441 699 514 699 l 254 699 l 254 448 l 458 448 q 571 475 524 448 q 629 568 629 507 m 678 210 q 594 334 678 292 q 438 366 529 366 l 254 366 l 254 81 l 412 81 q 582 92 543 81 q 678 210 678 118 z "},"C":{"ha":814,"x_min":60,"x_max":754,"o":"m 754 513 l 675 502 q 655 576 655 570 q 430 719 601 719 q 217 623 298 719 q 141 397 141 532 q 221 161 141 258 q 444 61 307 61 q 701 153 572 61 l 747 87 q 452 -20 604 -20 q 163 99 270 -20 q 60 397 60 214 q 157 680 60 566 q 427 800 260 800 q 575 774 509 800 q 654 724 631 753 q 670 781 659 747 l 747 770 q 739 661 739 720 q 754 513 739 578 z "},"D":{"ha":814,"x_min":52,"x_max":785,"o":"m 785 400 q 704 119 785 227 q 445 0 613 0 l 52 0 l 52 81 l 161 81 l 161 699 l 52 699 l 52 780 l 469 780 q 709 663 624 780 q 785 400 785 560 m 694 399 q 637 604 694 521 q 454 699 572 699 l 244 699 l 244 81 l 420 81 q 694 399 694 81 z "},"E":{"ha":814,"x_min":65,"x_max":753,"o":"m 753 0 l 65 0 l 65 81 l 186 81 l 186 699 l 65 699 l 65 780 l 732 780 l 732 533 l 661 534 l 647 699 l 267 699 l 267 448 l 475 448 l 475 543 l 556 543 l 556 271 l 475 271 l 475 366 l 267 366 l 267 81 l 667 81 l 675 259 l 753 259 l 753 0 z "},"F":{"ha":814,"x_min":65,"x_max":751,"o":"m 751 543 l 674 543 l 661 699 l 267 699 l 267 448 l 475 448 l 475 543 l 556 543 l 556 271 l 475 271 l 475 366 l 267 366 l 267 81 l 448 81 l 448 0 l 65 0 l 65 81 l 186 81 l 186 699 l 65 699 l 65 780 l 746 780 l 751 543 z "},"G":{"ha":814,"x_min":35,"x_max":787,"o":"m 787 271 l 719 271 l 719 42 q 418 -24 557 -24 q 138 96 240 -24 q 35 396 35 216 q 138 684 35 568 q 411 800 240 799 q 628 724 551 802 q 644 781 646 724 l 722 770 q 712 640 712 673 q 728 513 712 582 l 650 502 q 571 667 644 609 q 400 722 503 722 q 195 623 264 722 q 126 384 126 525 q 204 150 126 241 q 422 58 282 58 q 636 104 524 58 l 636 271 l 430 271 l 430 353 l 787 353 l 787 271 z "},"H":{"ha":814,"x_min":41,"x_max":773,"o":"m 773 0 l 488 0 l 488 81 l 590 81 l 590 366 l 224 366 l 224 81 l 326 81 l 326 0 l 41 0 l 41 81 l 142 81 l 142 699 l 41 699 l 41 780 l 326 780 l 326 699 l 224 699 l 224 448 l 590 448 l 590 699 l 488 699 l 488 780 l 773 780 l 773 699 l 671 699 l 671 81 l 773 81 l 773 0 z "},"I":{"ha":814,"x_min":122,"x_max":692,"o":"m 692 0 l 122 0 l 122 81 l 366 81 l 366 699 l 122 699 l 122 780 l 692 780 l 692 699 l 448 699 l 448 81 l 692 81 l 692 0 z "},"J":{"ha":814,"x_min":52,"x_max":773,"o":"m 773 699 l 597 699 l 597 251 q 543 50 597 114 q 349 -20 483 -20 q 148 33 232 -20 q 52 205 52 95 q 68 368 52 224 l 148 368 q 132 194 132 220 q 199 103 132 145 q 349 61 266 61 q 488 127 450 61 q 515 288 515 178 l 515 699 l 241 699 l 241 780 l 773 780 l 773 699 z "},"K":{"ha":814,"x_min":41,"x_max":792,"o":"m 792 0 l 601 0 l 555 117 q 355 370 476 315 l 244 255 l 244 81 l 353 81 l 353 0 l 41 0 l 41 81 l 163 81 l 163 699 l 41 699 l 41 780 l 353 780 l 353 699 l 244 699 l 244 372 l 563 699 l 467 699 l 467 780 l 751 780 l 751 699 l 674 699 l 419 430 q 609 195 544 343 l 659 81 l 792 81 l 792 0 z "},"L":{"ha":814,"x_min":57,"x_max":758,"o":"m 758 349 l 742 0 l 57 0 l 57 81 l 195 81 l 195 699 l 57 699 l 57 780 l 450 780 l 450 699 l 278 699 l 278 81 l 659 81 l 678 349 l 758 349 z "},"M":{"ha":814,"x_min":0,"x_max":814,"o":"m 814 0 l 488 0 l 488 81 l 631 81 l 631 675 l 434 195 l 380 195 l 183 675 l 183 81 l 326 81 l 326 0 l 0 0 l 0 81 l 102 81 l 102 699 l 0 699 l 0 780 l 236 780 l 407 343 l 578 780 l 814 780 l 814 699 l 712 699 l 712 81 l 814 81 l 814 0 z "},"N":{"ha":814,"x_min":3,"x_max":811,"o":"m 811 699 l 711 699 l 711 -18 l 597 -18 l 201 684 l 201 81 l 350 81 l 350 0 l 3 0 l 3 81 l 118 81 l 118 699 l 3 699 l 3 780 l 240 780 l 628 95 l 628 699 l 479 699 l 479 780 l 811 780 l 811 699 z "},"O":{"ha":814,"x_min":61,"x_max":753,"o":"m 407 -14 q 134 90 217 -14 q 61 377 61 182 l 61 404 q 134 692 61 600 q 407 793 217 793 q 680 692 597 793 q 753 404 753 600 l 753 377 q 680 90 753 182 q 407 -14 597 -14 m 142 377 q 193 146 142 214 q 407 68 251 68 q 621 146 563 68 q 671 377 671 214 l 671 404 q 621 633 671 567 q 407 712 562 712 q 193 633 252 712 q 142 404 142 567 l 142 377 z "},"P":{"ha":814,"x_min":100,"x_max":749,"o":"m 749 536 q 671 355 749 418 q 480 297 600 297 l 300 297 l 300 81 l 503 81 l 503 0 l 100 0 l 100 81 l 217 81 l 217 699 l 100 699 l 100 780 l 480 780 q 670 718 597 780 q 749 536 749 651 m 667 538 q 610 659 667 614 q 480 699 559 699 l 300 699 l 300 376 l 469 376 q 667 538 667 376 z "},"Q":{"ha":814,"x_min":57,"x_max":770,"o":"m 382 793 q 614 673 521 793 q 708 389 708 553 q 578 66 708 189 l 648 -38 l 720 18 l 770 -46 l 629 -157 l 510 18 q 382 -14 449 -14 q 149 109 244 -14 q 57 389 57 227 q 151 673 57 553 q 382 793 244 793 m 267 107 q 382 68 321 68 q 464 87 423 68 q 368 172 406 172 q 267 107 328 172 m 382 712 q 212 620 285 712 q 138 389 138 528 q 210 161 138 255 q 374 255 305 255 q 532 136 450 255 q 627 389 627 232 q 553 620 627 528 q 382 712 480 712 z "},"R":{"ha":814,"x_min":41,"x_max":773,"o":"m 773 0 l 632 0 q 525 209 589 114 q 357 366 442 331 l 244 366 l 244 81 l 366 81 l 366 0 l 41 0 l 41 81 l 163 81 l 163 699 l 41 699 l 41 780 l 473 780 q 694 581 694 780 q 636 435 694 494 q 495 370 582 382 q 601 247 548 327 q 686 81 669 146 l 773 81 l 773 0 m 608 579 q 463 699 608 699 l 244 699 l 244 448 l 416 448 q 608 579 608 448 z "},"S":{"ha":814,"x_min":114,"x_max":705,"o":"m 201 203 l 201 203 l 203 203 q 407 61 244 61 q 624 210 624 61 q 373 366 624 366 q 205 429 274 366 q 136 590 136 492 q 225 746 136 690 q 407 793 300 793 q 595 751 530 793 q 604 793 598 770 l 682 780 q 673 700 673 734 q 680 635 673 671 q 690 590 686 613 l 610 570 q 601 604 608 581 q 533 693 581 670 q 407 712 494 712 q 283 688 335 712 q 217 590 217 655 q 441 448 217 448 q 625 387 552 448 q 705 213 705 321 q 407 -20 705 -20 q 209 42 278 -20 q 194 -20 203 15 l 114 0 q 132 110 132 69 q 122 190 132 144 l 201 203 z "},"T":{"ha":814,"x_min":45,"x_max":772,"o":"m 772 450 l 692 442 l 671 699 l 449 699 l 449 81 l 617 81 l 617 0 l 198 0 l 198 81 l 366 81 l 366 699 l 144 699 l 125 442 l 45 450 l 68 780 l 747 780 l 772 450 z "},"U":{"ha":814,"x_min":20,"x_max":793,"o":"m 793 699 l 699 699 l 699 266 q 622 58 699 130 q 407 -14 545 -14 q 193 61 270 -14 q 115 273 115 136 l 115 699 l 20 699 l 20 780 l 326 780 l 326 699 l 197 699 l 197 323 q 407 68 197 68 q 575 140 524 68 q 617 323 617 201 l 617 699 l 488 699 l 488 780 l 793 780 l 793 699 z "},"V":{"ha":814,"x_min":20,"x_max":793,"o":"m 793 699 l 732 699 l 468 -18 l 346 -18 l 81 699 l 20 699 l 20 780 l 285 780 l 285 699 l 170 699 l 407 52 l 644 699 l 529 699 l 529 780 l 793 780 l 793 699 z "},"W":{"ha":814,"x_min":0,"x_max":814,"o":"m 814 699 l 760 699 l 667 -14 l 541 -14 l 407 483 l 273 -14 l 146 -14 l 54 699 l 0 699 l 0 780 l 244 780 l 244 699 l 142 699 l 213 76 l 353 604 l 461 604 l 601 76 l 671 699 l 570 699 l 570 780 l 814 780 l 814 699 z "},"X":{"ha":814,"x_min":24,"x_max":789,"o":"m 789 0 l 477 0 l 477 81 l 610 81 l 407 340 l 203 81 l 336 81 l 336 0 l 24 0 l 24 81 l 103 81 l 355 407 l 134 699 l 53 699 l 53 780 l 336 780 l 336 699 l 232 699 l 407 473 l 582 699 l 477 699 l 477 780 l 761 780 l 761 699 l 685 699 l 458 407 l 711 81 l 789 81 l 789 0 z "},"Y":{"ha":814,"x_min":41,"x_max":773,"o":"m 773 699 l 692 699 l 448 296 l 448 81 l 617 81 l 617 0 l 197 0 l 197 81 l 366 81 l 366 296 l 122 699 l 41 699 l 41 780 l 309 780 l 309 699 l 216 699 l 407 380 l 598 699 l 505 699 l 505 780 l 773 780 l 773 699 z "},"Z":{"ha":814,"x_min":109,"x_max":705,"o":"m 705 0 l 109 0 l 109 68 l 568 699 l 217 699 l 217 509 l 136 509 l 136 780 l 678 780 l 678 712 l 209 81 l 624 81 l 624 271 l 705 271 l 705 0 z "},"[":{"ha":814,"x_min":231,"x_max":583,"o":"m 583 -156 l 231 -156 l 231 861 l 583 861 l 583 780 l 339 780 l 339 -75 l 583 -75 l 583 -156 z "},"\\":{"ha":814,"x_min":161,"x_max":652,"o":"m 235 894 l 652 -47 l 579 -80 l 161 861 l 235 894 z "},"]":{"ha":814,"x_min":231,"x_max":583,"o":"m 231 -156 l 231 -75 l 475 -75 l 475 780 l 231 780 l 231 861 l 583 861 l 583 -156 l 231 -156 z "},"^":{"ha":814,"x_min":102,"x_max":712,"o":"m 712 366 l 631 366 l 407 728 l 183 366 l 102 366 l 407 861 l 712 366 z "},"_":{"ha":814,"x_min":-7,"x_max":821,"o":"m 821 -217 l -7 -217 l -7 -136 l 821 -136 l 821 -217 z "},"`":{"ha":814,"x_min":146,"x_max":448,"o":"m 448 678 l 377 678 l 146 916 l 294 916 l 448 678 z "},"a":{"ha":814,"x_min":65,"x_max":765,"o":"m 765 0 l 560 0 l 560 95 q 292 -20 448 -20 q 136 31 201 -20 q 65 175 65 87 q 153 334 65 271 q 332 391 232 391 q 560 373 490 391 l 560 412 q 395 533 560 533 q 160 476 283 533 l 127 551 q 397 612 278 612 q 563 572 496 612 q 643 433 643 525 l 643 79 l 765 79 l 765 0 m 560 209 l 560 290 q 384 308 412 308 q 146 171 146 308 q 202 90 146 122 q 304 61 251 61 q 449 106 376 61 q 560 209 515 146 z "},"b":{"ha":814,"x_min":12,"x_max":773,"o":"m 225 296 q 293 130 225 198 q 458 61 361 61 q 625 130 556 61 q 693 296 693 198 q 624 460 693 392 q 458 529 555 529 q 293 460 361 529 q 225 296 225 392 m 149 784 l 18 774 l 12 852 l 231 867 l 231 510 q 458 608 324 608 q 682 516 590 608 q 773 293 773 425 q 682 70 773 161 q 458 -22 590 -22 q 231 76 324 -22 l 231 0 l 33 0 l 33 81 l 149 81 l 149 784 z "},"c":{"ha":814,"x_min":75,"x_max":727,"o":"m 727 110 q 422 -14 574 -14 q 178 62 274 -14 q 75 288 75 144 q 169 517 75 431 q 412 604 263 604 q 618 547 505 604 l 631 605 l 709 595 q 696 502 696 538 q 719 372 696 469 l 639 363 q 559 481 629 438 q 418 521 496 521 q 231 464 300 521 q 156 289 156 403 q 240 122 156 183 q 426 68 315 68 q 564 98 498 68 q 686 174 610 119 l 727 110 z "},"d":{"ha":814,"x_min":41,"x_max":773,"o":"m 583 783 l 361 768 l 351 846 l 665 867 l 665 81 l 773 81 l 773 0 l 583 0 l 583 76 q 355 -22 490 -22 q 132 70 224 -22 q 41 293 41 161 q 132 516 41 425 q 355 608 224 608 q 583 510 490 608 l 583 783 m 590 296 q 521 460 590 392 q 355 529 452 529 q 190 460 258 529 q 122 296 122 392 q 190 130 122 198 q 355 61 258 61 q 522 130 453 61 q 590 296 590 198 z "},"e":{"ha":814,"x_min":76,"x_max":753,"o":"m 753 71 q 422 -14 579 -14 q 180 66 278 -14 q 76 290 76 152 q 172 519 76 435 q 416 604 269 604 q 641 528 548 604 q 734 343 734 452 l 734 271 l 159 271 q 245 118 167 174 q 419 68 316 68 q 724 146 560 68 l 753 71 m 652 353 q 577 475 644 427 q 418 522 510 522 q 256 481 323 522 q 165 353 184 437 l 652 353 z "},"f":{"ha":814,"x_min":146,"x_max":731,"o":"m 731 849 l 693 766 q 517 784 587 784 q 389 736 412 784 q 377 590 377 712 l 651 590 l 651 509 l 377 509 l 377 81 l 673 81 l 673 0 l 146 0 l 146 81 l 296 81 l 296 509 l 146 509 l 146 590 l 296 590 q 323 796 296 749 q 510 867 363 867 q 620 860 552 867 q 731 849 707 850 z "},"g":{"ha":814,"x_min":27,"x_max":773,"o":"m 570 590 l 773 590 l 773 509 l 651 509 l 651 -49 q 391 -285 651 -285 q 103 -240 282 -285 l 123 -159 q 387 -202 269 -202 q 570 -41 570 -202 l 570 76 q 346 -14 476 -14 q 121 77 214 -14 q 27 294 27 168 q 121 513 27 422 q 346 604 214 604 q 570 514 476 604 l 570 590 m 109 294 q 178 134 109 201 q 346 68 248 68 q 513 134 444 68 q 583 294 583 201 q 513 456 583 389 q 346 522 444 522 q 178 456 248 522 q 109 294 109 389 z "},"h":{"ha":814,"x_min":18,"x_max":796,"o":"m 796 0 l 484 0 l 484 81 l 600 81 l 600 368 q 574 480 600 445 q 469 522 543 522 q 236 407 377 522 l 236 81 l 351 81 l 351 0 l 38 0 l 38 81 l 153 81 l 153 783 l 26 773 l 18 852 l 236 867 l 236 507 q 483 604 363 604 q 682 414 682 604 l 682 81 l 796 81 l 796 0 z "},"i":{"ha":814,"x_min":122,"x_max":692,"o":"m 692 0 l 122 0 l 122 81 l 366 81 l 366 509 l 163 509 l 163 590 l 448 590 l 448 81 l 692 81 l 692 0 m 407 705 q 349 729 373 705 q 326 787 326 753 q 349 844 326 821 q 407 868 373 868 q 465 844 441 868 q 488 787 488 821 q 465 729 488 753 q 407 705 441 705 z "},"j":{"ha":814,"x_min":104,"x_max":563,"o":"m 563 -28 q 494 -217 563 -149 q 302 -285 425 -285 q 203 -271 263 -285 q 104 -251 122 -254 l 118 -172 q 206 -191 140 -175 q 294 -205 260 -205 q 481 -5 481 -205 l 481 509 l 241 509 l 241 590 l 563 590 l 563 -28 m 481 700 q 424 724 448 700 q 400 781 400 747 q 424 839 400 815 q 481 863 448 863 q 539 839 515 863 q 563 781 563 815 q 539 724 563 747 q 481 700 515 700 z "},"k":{"ha":814,"x_min":52,"x_max":793,"o":"m 793 0 l 503 0 l 503 81 l 563 81 l 350 298 q 270 241 327 283 l 270 0 l 72 0 l 72 81 l 187 81 l 187 783 l 57 773 l 52 852 l 270 867 l 270 342 l 494 509 l 438 509 l 438 590 l 742 590 l 742 509 l 632 509 l 415 350 l 674 81 l 793 81 l 793 0 z "},"l":{"ha":814,"x_min":122,"x_max":692,"o":"m 692 0 l 122 0 l 122 81 l 366 81 l 366 783 l 141 768 l 134 846 l 448 867 l 448 81 l 692 81 l 692 0 z "},"m":{"ha":814,"x_min":41,"x_max":773,"o":"m 509 0 l 366 0 l 366 385 q 324 522 366 522 q 203 430 259 522 l 203 81 l 264 81 l 264 0 l 41 0 l 41 81 l 122 81 l 122 509 l 41 509 l 41 590 l 203 590 l 203 559 q 324 604 256 604 q 429 540 401 604 q 568 604 488 604 q 665 555 637 604 q 692 385 692 507 l 692 81 l 773 81 l 773 0 l 610 0 l 610 385 q 568 522 610 522 q 446 429 503 522 q 448 385 448 408 l 448 81 l 509 81 l 509 0 z "},"n":{"ha":814,"x_min":27,"x_max":787,"o":"m 787 0 l 475 0 l 475 81 l 590 81 l 590 368 q 564 480 590 444 q 460 522 533 522 q 227 399 377 522 l 227 81 l 342 81 l 342 0 l 27 0 l 27 81 l 144 81 l 144 509 l 27 509 l 27 590 l 227 590 l 227 500 q 473 605 335 605 q 673 414 673 605 l 673 81 l 787 81 l 787 0 z "},"o":{"ha":814,"x_min":98,"x_max":715,"o":"m 98 294 q 189 513 98 423 q 407 604 279 604 q 625 513 534 604 q 715 294 715 423 q 625 77 715 167 q 407 -14 534 -14 q 189 77 279 -14 q 98 294 98 167 m 179 294 q 246 134 179 201 q 407 68 313 68 q 567 134 500 68 q 633 294 633 201 q 567 456 633 389 q 407 522 500 522 q 246 456 313 522 q 179 294 179 389 z "},"p":{"ha":814,"x_min":33,"x_max":773,"o":"m 231 -190 l 434 -190 l 434 -271 l 33 -271 l 33 -190 l 149 -190 l 149 509 l 33 509 l 33 590 l 231 590 l 231 514 q 454 604 323 604 q 680 513 586 604 q 773 296 773 423 q 680 77 773 168 q 454 -14 586 -14 q 231 76 323 -14 l 231 -190 m 217 294 q 287 134 217 201 q 454 68 357 68 q 622 134 552 68 q 692 294 692 201 q 622 455 692 388 q 454 522 552 522 q 287 455 357 522 q 217 294 217 388 z "},"q":{"ha":814,"x_min":33,"x_max":773,"o":"m 575 -190 l 575 76 q 351 -14 483 -14 q 126 77 220 -14 q 33 296 33 168 q 126 513 33 423 q 351 604 220 604 q 575 514 483 604 l 575 590 l 773 590 l 773 509 l 656 509 l 656 -190 l 773 -190 l 773 -271 l 372 -271 l 372 -190 l 575 -190 m 589 294 q 519 455 589 388 q 351 522 449 522 q 184 455 254 522 q 114 294 114 388 q 184 134 114 201 q 351 68 254 68 q 519 134 449 68 q 589 294 589 201 z "},"r":{"ha":814,"x_min":75,"x_max":766,"o":"m 766 494 l 685 484 q 614 533 675 533 q 332 349 529 533 l 332 81 l 598 81 l 598 0 l 75 0 l 75 81 l 251 81 l 251 509 l 87 509 l 87 590 l 332 590 l 332 454 q 633 612 498 612 q 766 494 753 612 z "},"s":{"ha":814,"x_min":99,"x_max":703,"o":"m 703 170 q 608 27 703 77 q 429 -14 529 -14 q 199 41 305 -14 q 182 -15 186 41 l 99 -8 q 114 85 114 37 q 100 205 114 146 l 182 213 q 267 100 193 138 q 412 68 330 68 q 540 88 480 68 q 621 170 621 115 q 543 248 621 227 q 418 260 503 258 q 125 441 125 267 q 214 568 125 525 q 380 604 286 604 q 494 583 423 604 q 581 563 566 563 q 601 606 595 563 l 675 600 q 663 515 663 553 q 682 403 663 468 l 602 396 q 380 522 585 522 q 274 507 320 522 q 206 442 206 486 q 335 350 206 365 q 574 324 454 336 q 703 170 703 290 z "},"t":{"ha":814,"x_min":111,"x_max":727,"o":"m 727 58 q 437 -20 551 -20 q 273 26 332 -20 q 206 179 206 79 l 206 509 l 111 509 l 111 590 l 206 590 l 206 780 l 289 780 l 289 590 l 604 590 l 604 509 l 289 509 l 289 231 q 320 104 289 141 q 442 62 355 62 q 718 140 537 62 l 727 58 z "},"u":{"ha":814,"x_min":41,"x_max":773,"o":"m 773 0 l 570 0 l 570 76 q 366 -20 492 -20 q 201 30 260 -20 q 136 189 136 85 l 136 509 l 41 509 l 41 590 l 217 590 l 217 195 q 259 96 217 130 q 368 62 301 62 q 570 186 465 62 l 570 509 l 456 509 l 456 590 l 651 590 l 651 81 l 773 81 l 773 0 z "},"v":{"ha":814,"x_min":41,"x_max":773,"o":"m 773 509 l 694 509 l 461 -14 l 353 -14 l 119 509 l 41 509 l 41 590 l 285 590 l 285 509 l 210 509 l 407 64 l 604 509 l 529 509 l 529 590 l 773 590 l 773 509 z "},"w":{"ha":814,"x_min":0,"x_max":814,"o":"m 300 -14 l 229 -14 l 54 509 l 0 509 l 0 590 l 203 590 l 203 509 l 140 509 l 264 117 l 365 431 l 339 509 l 285 509 l 285 590 l 488 590 l 488 509 l 425 509 l 549 117 l 674 509 l 610 509 l 610 590 l 814 590 l 814 509 l 760 509 l 585 -14 l 514 -14 l 407 307 l 300 -14 z "},"x":{"ha":814,"x_min":41,"x_max":773,"o":"m 773 0 l 506 0 l 506 81 l 579 81 l 407 254 l 235 81 l 308 81 l 308 0 l 41 0 l 41 81 l 119 81 l 350 311 l 149 509 l 62 509 l 62 590 l 323 590 l 323 509 l 266 509 l 407 366 l 548 509 l 491 509 l 491 590 l 751 590 l 751 509 l 665 509 l 464 311 l 694 81 l 773 81 l 773 0 z "},"y":{"ha":814,"x_min":41,"x_max":773,"o":"m 773 509 l 723 509 l 321 -190 l 464 -190 l 464 -271 l 41 -271 l 41 -190 l 227 -190 l 359 42 l 91 509 l 41 509 l 41 590 l 255 590 l 255 509 l 184 509 l 407 123 l 629 509 l 543 509 l 543 590 l 773 590 l 773 509 z "},"z":{"ha":814,"x_min":127,"x_max":688,"o":"m 688 590 l 688 537 l 264 81 l 605 81 l 605 197 l 686 197 l 686 0 l 127 0 l 127 60 l 549 509 l 224 509 l 224 397 l 142 397 l 142 590 l 688 590 z "},"{":{"ha":814,"x_min":203,"x_max":610,"o":"m 366 186 q 307 273 366 232 q 203 312 254 308 q 206 353 206 349 q 203 393 206 357 q 307 433 254 397 q 366 519 366 473 l 366 680 q 610 861 366 861 l 610 780 q 500 765 536 780 q 448 680 448 742 l 448 519 q 331 353 448 419 q 448 186 448 286 l 448 26 q 500 -60 448 -38 q 610 -75 536 -75 l 610 -156 q 366 26 366 -156 l 366 186 z "},"|":{"ha":814,"x_min":366,"x_max":448,"o":"m 448 -109 l 366 -109 l 366 922 l 448 922 l 448 -109 z "},"}":{"ha":814,"x_min":203,"x_max":610,"o":"m 448 186 l 448 26 q 203 -156 448 -156 l 203 -75 q 313 -60 278 -75 q 366 26 366 -38 l 366 186 q 483 353 366 286 q 366 519 366 419 l 366 680 q 313 765 366 742 q 203 780 278 780 l 203 861 q 448 680 448 861 l 448 519 q 507 433 448 473 q 610 393 560 397 q 608 353 608 357 q 610 312 608 349 q 507 273 560 308 q 448 186 448 232 z "},"~":{"ha":814,"x_min":121,"x_max":692,"o":"m 692 509 q 633 361 671 423 q 515 271 581 271 q 407 312 456 271 q 339 388 381 334 q 289 430 307 430 q 217 370 259 431 q 164 271 180 319 q 121 271 123 273 q 178 429 145 374 q 298 509 225 509 q 414 431 347 509 q 529 354 481 354 q 602 416 560 354 q 651 509 636 465 l 692 509 z "},"Ä":{"ha":814,"x_min":0,"x_max":814,"o":"m 543 875 q 485 899 509 875 q 461 956 461 922 q 485 1014 461 990 q 543 1038 509 1038 q 600 1014 576 1038 q 624 956 624 990 q 600 899 624 922 q 543 875 576 875 m 271 875 q 214 899 237 875 q 190 956 190 922 q 214 1014 190 990 q 271 1038 237 1038 q 329 1014 305 1038 q 353 956 353 990 q 329 899 353 922 q 271 875 305 875 m 814 0 l 543 0 l 543 81 l 651 81 l 583 244 l 231 244 l 163 81 l 271 81 l 271 0 l 0 0 l 0 81 l 75 81 l 332 699 l 142 699 l 142 780 l 446 780 l 739 81 l 814 81 l 814 0 m 549 326 l 407 662 l 264 326 l 549 326 z "},"Å":{"ha":814,"x_min":0,"x_max":814,"o":"m 525 956 q 491 872 525 906 q 407 838 457 838 q 323 872 357 838 q 289 956 289 906 q 323 1040 289 1005 q 407 1074 358 1074 q 490 1040 456 1074 q 525 956 525 1005 m 464 956 q 447 996 464 979 q 407 1013 430 1013 q 367 996 384 1013 q 350 956 350 979 q 367 916 350 933 q 407 899 384 899 q 447 916 430 899 q 464 956 464 933 m 814 0 l 543 0 l 543 81 l 651 81 l 583 244 l 231 244 l 163 81 l 271 81 l 271 0 l 0 0 l 0 81 l 75 81 l 332 699 l 142 699 l 142 780 l 446 780 l 739 81 l 814 81 l 814 0 m 549 326 l 407 662 l 264 326 l 549 326 z "},"Ç":{"ha":814,"x_min":60,"x_max":754,"o":"m 331 -129 q 411 -156 365 -156 q 457 -122 457 -156 q 429 -92 457 -103 q 369 -80 401 -80 l 382 -15 q 146 119 232 7 q 60 397 60 232 q 157 680 60 566 q 427 800 260 800 q 575 774 509 800 q 654 724 631 753 q 670 781 659 747 l 747 770 q 739 661 739 720 q 754 513 739 578 l 675 502 q 655 576 655 570 q 430 719 601 719 q 217 623 298 719 q 141 397 141 532 q 221 161 141 258 q 444 61 307 61 q 701 153 572 61 l 747 87 q 452 -20 604 -20 l 449 -34 q 502 -64 479 -41 q 525 -122 525 -88 q 487 -201 525 -172 q 411 -224 456 -224 q 289 -182 340 -224 l 331 -129 z "},"É":{"ha":814,"x_min":65,"x_max":753,"o":"m 753 0 l 65 0 l 65 81 l 186 81 l 186 699 l 65 699 l 65 780 l 732 780 l 732 533 l 661 534 l 647 699 l 267 699 l 267 448 l 475 448 l 475 543 l 556 543 l 556 271 l 475 271 l 475 366 l 267 366 l 267 81 l 667 81 l 675 259 l 753 259 l 753 0 m 366 848 l 519 1085 l 667 1085 l 437 848 l 366 848 z "},"Ñ":{"ha":814,"x_min":3,"x_max":811,"o":"m 811 699 l 711 699 l 711 -18 l 597 -18 l 201 684 l 201 81 l 350 81 l 350 0 l 3 0 l 3 81 l 118 81 l 118 699 l 3 699 l 3 780 l 240 780 l 628 95 l 628 699 l 479 699 l 479 780 l 811 780 l 811 699 m 692 1085 q 633 944 671 1004 q 515 861 582 861 q 407 902 457 861 q 338 979 382 922 q 289 1020 305 1020 q 214 956 258 1020 q 164 861 180 906 l 121 861 q 298 1085 175 1085 q 414 1008 349 1085 q 529 930 480 930 q 602 993 560 930 q 651 1085 636 1042 l 692 1085 z "},"Ö":{"ha":814,"x_min":61,"x_max":753,"o":"m 543 875 q 485 899 509 875 q 461 956 461 922 q 485 1014 461 990 q 543 1038 509 1038 q 600 1014 576 1038 q 624 956 624 990 q 600 899 624 922 q 543 875 576 875 m 271 875 q 214 899 237 875 q 190 956 190 922 q 214 1014 190 990 q 271 1038 237 1038 q 329 1014 305 1038 q 353 956 353 990 q 329 899 353 922 q 271 875 305 875 m 407 -14 q 134 90 217 -14 q 61 377 61 182 l 61 404 q 134 692 61 600 q 407 793 217 793 q 678 692 597 793 q 753 404 753 600 l 753 377 q 680 90 753 182 q 407 -14 597 -14 m 142 377 q 193 146 142 214 q 407 68 251 68 q 621 146 563 68 q 671 377 671 214 l 671 404 q 621 633 671 567 q 407 712 562 712 q 193 633 252 712 q 142 404 142 567 l 142 377 z "},"Ü":{"ha":814,"x_min":20,"x_max":793,"o":"m 793 699 l 699 699 l 699 266 q 622 58 699 130 q 407 -14 545 -14 q 193 61 270 -14 q 115 273 115 136 l 115 699 l 20 699 l 20 780 l 326 780 l 326 699 l 197 699 l 197 323 q 407 68 197 68 q 575 140 524 68 q 617 323 617 201 l 617 699 l 488 699 l 488 780 l 793 780 l 793 699 m 543 875 q 485 899 509 875 q 461 956 461 922 q 485 1014 461 990 q 543 1038 509 1038 q 600 1014 576 1038 q 624 956 624 990 q 600 899 624 922 q 543 875 576 875 m 271 875 q 214 899 237 875 q 190 956 190 922 q 214 1014 190 990 q 271 1038 237 1038 q 329 1014 305 1038 q 353 956 353 990 q 329 899 353 922 q 271 875 305 875 z "},"á":{"ha":814,"x_min":65,"x_max":765,"o":"m 765 0 l 560 0 l 560 95 q 292 -20 448 -20 q 136 31 201 -20 q 65 175 65 87 q 153 334 65 271 q 332 391 232 391 q 560 373 490 391 l 560 412 q 395 533 560 533 q 160 476 283 533 l 127 551 q 397 612 278 612 q 563 572 496 612 q 643 433 643 525 l 643 79 l 765 79 l 765 0 m 560 209 l 560 290 q 384 308 412 308 q 146 171 146 308 q 202 90 146 122 q 304 61 251 61 q 449 106 376 61 q 560 209 515 146 m 366 678 l 519 916 l 667 916 l 437 678 l 366 678 z "},"à":{"ha":814,"x_min":65,"x_max":765,"o":"m 765 0 l 560 0 l 560 95 q 292 -20 448 -20 q 136 31 201 -20 q 65 175 65 87 q 153 334 65 271 q 332 391 232 391 q 560 373 490 391 l 560 412 q 395 533 560 533 q 160 476 283 533 l 127 551 q 397 612 278 612 q 563 572 496 612 q 643 433 643 525 l 643 79 l 765 79 l 765 0 m 560 209 l 560 290 q 384 308 412 308 q 146 171 146 308 q 202 90 146 122 q 304 61 251 61 q 449 106 376 61 q 560 209 515 146 m 448 678 l 377 678 l 146 916 l 294 916 l 448 678 z "},"â":{"ha":814,"x_min":65,"x_max":765,"o":"m 765 0 l 560 0 l 560 95 q 292 -20 448 -20 q 136 31 201 -20 q 65 175 65 87 q 153 334 65 271 q 332 391 232 391 q 560 373 490 391 l 560 412 q 395 533 560 533 q 160 476 283 533 l 127 551 q 397 612 278 612 q 563 572 496 612 q 643 433 643 525 l 643 79 l 765 79 l 765 0 m 560 209 l 560 290 q 384 308 412 308 q 146 171 146 308 q 202 90 146 122 q 304 61 251 61 q 449 106 376 61 q 560 209 515 146 m 656 693 l 612 659 l 407 844 l 203 659 l 159 693 l 346 916 l 468 916 l 656 693 z "},"ä":{"ha":814,"x_min":65,"x_max":765,"o":"m 765 0 l 560 0 l 560 95 q 292 -20 448 -20 q 136 31 201 -20 q 65 175 65 87 q 153 334 65 271 q 332 391 232 391 q 560 373 490 391 l 560 412 q 395 533 560 533 q 160 476 283 533 l 127 551 q 397 612 278 612 q 563 572 496 612 q 643 433 643 525 l 643 79 l 765 79 l 765 0 m 560 209 l 560 290 q 384 308 412 308 q 146 171 146 308 q 202 90 146 122 q 304 61 251 61 q 449 106 376 61 q 560 209 515 146 m 543 705 q 485 729 509 705 q 461 787 461 753 q 485 844 461 821 q 543 868 509 868 q 600 844 576 868 q 624 787 624 821 q 600 729 624 753 q 543 705 576 705 m 271 705 q 214 729 237 705 q 190 787 190 753 q 214 844 190 821 q 271 868 237 868 q 329 844 305 868 q 353 787 353 821 q 329 729 353 753 q 271 705 305 705 z "},"ã":{"ha":814,"x_min":65,"x_max":765,"o":"m 765 0 l 560 0 l 560 95 q 292 -20 448 -20 q 136 31 201 -20 q 65 175 65 87 q 153 334 65 271 q 332 391 232 391 q 560 373 490 391 l 560 412 q 395 533 560 533 q 160 476 283 533 l 127 551 q 397 612 278 612 q 563 572 496 612 q 643 433 643 525 l 643 79 l 765 79 l 765 0 m 560 209 l 560 290 q 384 308 412 308 q 146 171 146 308 q 202 90 146 122 q 304 61 251 61 q 449 106 376 61 q 560 209 515 146 m 692 916 q 633 774 671 834 q 515 692 582 692 q 407 732 457 692 q 338 810 382 753 q 289 850 305 850 q 214 787 258 850 q 164 692 180 736 l 121 692 q 298 916 175 916 q 414 838 349 916 q 529 761 480 761 q 602 823 560 761 q 651 916 636 872 l 692 916 z "},"å":{"ha":814,"x_min":65,"x_max":765,"o":"m 765 0 l 560 0 l 560 95 q 292 -20 448 -20 q 136 31 201 -20 q 65 175 65 87 q 153 334 65 271 q 332 391 232 391 q 560 373 490 391 l 560 412 q 395 533 560 533 q 160 476 283 533 l 127 551 q 397 612 278 612 q 563 572 496 612 q 643 433 643 525 l 643 79 l 765 79 l 765 0 m 560 209 l 560 290 q 384 308 412 308 q 146 171 146 308 q 202 90 146 122 q 304 61 251 61 q 449 106 376 61 q 560 209 515 146 m 525 787 q 491 703 525 736 q 407 669 457 669 q 323 703 357 669 q 289 787 289 736 q 323 870 289 836 q 407 905 358 905 q 490 870 456 905 q 525 787 525 836 m 464 787 q 447 827 464 810 q 407 844 430 844 q 367 827 384 844 q 350 787 350 810 q 367 747 350 764 q 407 730 384 730 q 447 747 430 730 q 464 787 464 764 z "},"ç":{"ha":814,"x_min":75,"x_max":727,"o":"m 331 -129 q 411 -156 365 -156 q 457 -122 457 -156 q 429 -92 457 -103 q 369 -80 401 -80 l 384 -12 q 165 73 250 -1 q 75 288 75 155 q 169 517 75 431 q 412 604 263 604 q 618 547 505 604 l 631 605 l 709 595 q 696 502 696 538 q 719 372 696 469 l 639 363 q 559 481 629 438 q 418 521 496 521 q 231 464 300 521 q 156 289 156 403 q 240 122 156 183 q 426 68 315 68 q 564 98 498 68 q 686 174 610 119 l 727 110 q 453 -12 590 0 l 449 -34 q 502 -64 479 -41 q 525 -122 525 -88 q 487 -201 525 -172 q 411 -224 456 -224 q 289 -182 340 -224 l 331 -129 z "},"é":{"ha":814,"x_min":76,"x_max":753,"o":"m 753 71 q 422 -14 579 -14 q 180 66 278 -14 q 76 290 76 152 q 172 519 76 435 q 416 604 269 604 q 641 528 548 604 q 734 343 734 452 l 734 271 l 159 271 q 245 118 167 174 q 419 68 316 68 q 724 146 560 68 l 753 71 m 652 353 q 577 475 644 427 q 418 522 510 522 q 256 481 323 522 q 165 353 184 437 l 652 353 m 366 678 l 519 916 l 667 916 l 437 678 l 366 678 z "},"è":{"ha":814,"x_min":76,"x_max":753,"o":"m 753 71 q 422 -14 579 -14 q 180 66 278 -14 q 76 290 76 152 q 172 519 76 435 q 416 604 269 604 q 641 528 548 604 q 734 343 734 452 l 734 271 l 159 271 q 245 118 167 174 q 419 68 316 68 q 724 146 560 68 l 753 71 m 652 353 q 577 475 644 427 q 418 522 510 522 q 256 481 323 522 q 165 353 184 437 l 652 353 m 448 678 l 377 678 l 146 916 l 294 916 l 448 678 z "},"ê":{"ha":814,"x_min":76,"x_max":753,"o":"m 753 71 q 422 -14 579 -14 q 180 66 278 -14 q 76 290 76 152 q 172 519 76 435 q 416 604 269 604 q 641 528 548 604 q 734 343 734 452 l 734 271 l 159 271 q 245 118 167 174 q 419 68 316 68 q 724 146 560 68 l 753 71 m 652 353 q 577 475 644 427 q 418 522 510 522 q 256 481 323 522 q 165 353 184 437 l 652 353 m 656 693 l 612 659 l 407 844 l 203 659 l 159 693 l 346 916 l 468 916 l 656 693 z "},"ë":{"ha":814,"x_min":76,"x_max":753,"o":"m 753 71 q 422 -14 579 -14 q 180 66 278 -14 q 76 290 76 152 q 172 519 76 435 q 416 604 269 604 q 641 528 548 604 q 734 343 734 452 l 734 271 l 159 271 q 245 118 167 174 q 419 68 316 68 q 724 146 560 68 l 753 71 m 652 353 q 577 475 644 427 q 418 522 510 522 q 256 481 323 522 q 165 353 184 437 l 652 353 m 543 705 q 485 729 509 705 q 461 787 461 753 q 485 844 461 821 q 543 868 509 868 q 600 844 576 868 q 624 787 624 821 q 600 729 624 753 q 543 705 576 705 m 271 705 q 214 729 237 705 q 190 787 190 753 q 214 844 190 821 q 271 868 237 868 q 329 844 305 868 q 353 787 353 821 q 329 729 353 753 q 271 705 305 705 z "},"í":{"ha":814,"x_min":122,"x_max":692,"o":"m 692 0 l 122 0 l 122 81 l 366 81 l 366 509 l 163 509 l 163 590 l 448 590 l 448 81 l 692 81 l 692 0 m 366 678 l 519 916 l 667 916 l 437 678 l 366 678 z "},"ì":{"ha":814,"x_min":122,"x_max":692,"o":"m 692 0 l 122 0 l 122 81 l 366 81 l 366 509 l 163 509 l 163 590 l 448 590 l 448 81 l 692 81 l 692 0 m 448 678 l 377 678 l 146 916 l 294 916 l 448 678 z "},"î":{"ha":814,"x_min":122,"x_max":692,"o":"m 692 0 l 122 0 l 122 81 l 366 81 l 366 509 l 163 509 l 163 590 l 448 590 l 448 81 l 692 81 l 692 0 m 656 693 l 612 659 l 407 844 l 203 659 l 159 693 l 346 916 l 468 916 l 656 693 z "},"ï":{"ha":814,"x_min":122,"x_max":692,"o":"m 692 0 l 122 0 l 122 81 l 366 81 l 366 509 l 163 509 l 163 590 l 448 590 l 448 81 l 692 81 l 692 0 m 543 705 q 485 729 509 705 q 461 787 461 753 q 485 844 461 821 q 543 868 509 868 q 600 844 576 868 q 624 787 624 821 q 600 729 624 753 q 543 705 576 705 m 271 705 q 214 729 237 705 q 190 787 190 753 q 214 844 190 821 q 271 868 237 868 q 329 844 305 868 q 353 787 353 821 q 329 729 353 753 q 271 705 305 705 z "},"ñ":{"ha":814,"x_min":27,"x_max":787,"o":"m 787 0 l 475 0 l 475 81 l 590 81 l 590 368 q 564 480 590 444 q 460 522 533 522 q 227 399 377 522 l 227 81 l 342 81 l 342 0 l 27 0 l 27 81 l 144 81 l 144 509 l 27 509 l 27 590 l 227 590 l 227 500 q 473 605 335 605 q 673 414 673 605 l 673 81 l 787 81 l 787 0 m 692 916 q 633 774 671 834 q 515 692 582 692 q 407 732 457 692 q 338 810 382 753 q 289 850 305 850 q 214 787 258 850 q 164 692 180 736 l 121 692 q 298 916 175 916 q 414 838 349 916 q 529 761 480 761 q 602 823 560 761 q 651 916 636 872 l 692 916 z "},"ó":{"ha":814,"x_min":98,"x_max":715,"o":"m 98 294 q 189 513 98 423 q 407 604 279 604 q 625 513 534 604 q 715 294 715 423 q 625 77 715 167 q 407 -14 534 -14 q 189 77 279 -14 q 98 294 98 167 m 179 294 q 246 134 179 201 q 407 68 313 68 q 567 134 500 68 q 633 294 633 201 q 567 456 633 389 q 407 522 500 522 q 246 456 313 522 q 179 294 179 389 m 366 678 l 519 916 l 667 916 l 437 678 l 366 678 z "},"ò":{"ha":814,"x_min":98,"x_max":715,"o":"m 98 294 q 189 513 98 423 q 407 604 279 604 q 625 513 534 604 q 715 294 715 423 q 625 77 715 167 q 407 -14 534 -14 q 189 77 279 -14 q 98 294 98 167 m 179 294 q 246 134 179 201 q 407 68 313 68 q 567 134 500 68 q 633 294 633 201 q 567 456 633 389 q 407 522 500 522 q 246 456 313 522 q 179 294 179 389 m 448 678 l 377 678 l 146 916 l 294 916 l 448 678 z "},"ô":{"ha":814,"x_min":98,"x_max":715,"o":"m 98 294 q 189 513 98 423 q 407 604 279 604 q 625 513 534 604 q 715 294 715 423 q 625 77 715 167 q 407 -14 534 -14 q 189 77 279 -14 q 98 294 98 167 m 179 294 q 246 134 179 201 q 407 68 313 68 q 567 134 500 68 q 633 294 633 201 q 567 456 633 389 q 407 522 500 522 q 246 456 313 522 q 179 294 179 389 m 656 693 l 612 659 l 407 844 l 203 659 l 159 693 l 346 916 l 468 916 l 656 693 z "},"ö":{"ha":814,"x_min":98,"x_max":715,"o":"m 98 294 q 189 513 98 423 q 407 604 279 604 q 625 513 534 604 q 715 294 715 423 q 625 77 715 167 q 407 -14 534 -14 q 189 77 279 -14 q 98 294 98 167 m 179 294 q 246 134 179 201 q 407 68 313 68 q 567 134 500 68 q 633 294 633 201 q 567 456 633 389 q 407 522 500 522 q 246 456 313 522 q 179 294 179 389 m 543 705 q 485 729 509 705 q 461 787 461 753 q 485 844 461 821 q 543 868 509 868 q 600 844 576 868 q 624 787 624 821 q 600 729 624 753 q 543 705 576 705 m 271 705 q 214 729 237 705 q 190 787 190 753 q 214 844 190 821 q 271 868 237 868 q 329 844 305 868 q 353 787 353 821 q 329 729 353 753 q 271 705 305 705 z "},"õ":{"ha":814,"x_min":98,"x_max":715,"o":"m 98 294 q 189 513 98 423 q 407 604 279 604 q 625 513 534 604 q 715 294 715 423 q 625 77 715 167 q 407 -14 534 -14 q 189 77 279 -14 q 98 294 98 167 m 179 294 q 246 134 179 201 q 407 68 313 68 q 567 134 500 68 q 633 294 633 201 q 567 456 633 389 q 407 522 500 522 q 246 456 313 522 q 179 294 179 389 m 692 916 q 633 774 671 834 q 515 692 582 692 q 407 732 457 692 q 338 810 382 753 q 289 850 305 850 q 214 787 258 850 q 164 692 180 736 l 121 692 q 298 916 175 916 q 414 838 349 916 q 529 761 480 761 q 602 823 560 761 q 651 916 636 872 l 692 916 z "},"ú":{"ha":814,"x_min":41,"x_max":773,"o":"m 773 0 l 570 0 l 570 76 q 366 -20 492 -20 q 201 30 260 -20 q 136 189 136 85 l 136 509 l 41 509 l 41 590 l 217 590 l 217 195 q 259 96 217 130 q 368 62 301 62 q 570 186 465 62 l 570 509 l 456 509 l 456 590 l 651 590 l 651 81 l 773 81 l 773 0 m 339 678 l 492 916 l 640 916 l 410 678 l 339 678 z "},"ù":{"ha":814,"x_min":41,"x_max":773,"o":"m 773 0 l 570 0 l 570 76 q 366 -20 492 -20 q 201 30 260 -20 q 136 189 136 85 l 136 509 l 41 509 l 41 590 l 217 590 l 217 195 q 259 96 217 130 q 368 62 301 62 q 570 186 465 62 l 570 509 l 456 509 l 456 590 l 651 590 l 651 81 l 773 81 l 773 0 m 420 678 l 350 678 l 119 916 l 267 916 l 420 678 z "},"û":{"ha":814,"x_min":41,"x_max":773,"o":"m 773 0 l 570 0 l 570 76 q 366 -20 492 -20 q 201 30 260 -20 q 136 189 136 85 l 136 509 l 41 509 l 41 590 l 217 590 l 217 195 q 259 96 217 130 q 368 62 301 62 q 570 186 465 62 l 570 509 l 456 509 l 456 590 l 651 590 l 651 81 l 773 81 l 773 0 m 629 693 l 585 659 l 380 844 l 176 659 l 132 693 l 319 916 l 441 916 l 629 693 z "},"ü":{"ha":814,"x_min":41,"x_max":773,"o":"m 773 0 l 570 0 l 570 76 q 366 -20 492 -20 q 201 30 260 -20 q 136 189 136 85 l 136 509 l 41 509 l 41 590 l 217 590 l 217 195 q 259 96 217 130 q 368 62 301 62 q 570 186 465 62 l 570 509 l 456 509 l 456 590 l 651 590 l 651 81 l 773 81 l 773 0 m 515 705 q 458 729 481 705 q 434 787 434 753 q 458 844 434 821 q 515 868 481 868 q 573 844 549 868 q 597 787 597 821 q 573 729 597 753 q 515 705 549 705 m 244 705 q 186 729 210 705 q 163 787 163 753 q 186 844 163 821 q 244 868 210 868 q 302 844 278 868 q 326 787 326 821 q 302 729 326 753 q 244 705 278 705 z "},"†":{"ha":814,"x_min":184,"x_max":629,"o":"m 629 699 l 456 699 l 420 170 l 393 170 l 359 699 l 184 699 l 184 780 l 380 780 l 366 990 q 407 1036 384 1036 q 448 990 430 1036 l 434 780 l 629 780 l 629 699 z "},"°":{"ha":814,"x_min":160,"x_max":654,"o":"m 654 616 q 582 440 654 511 q 407 369 510 369 q 231 440 302 369 q 160 616 160 511 q 232 790 160 719 q 407 861 304 861 q 582 790 510 861 q 654 616 654 719 m 241 614 q 290 497 241 545 q 407 449 338 449 q 524 497 476 449 q 572 614 572 545 q 524 732 572 684 q 407 780 476 780 q 290 732 338 780 q 241 614 241 684 z "},"¢":{"ha":814,"x_min":76,"x_max":727,"o":"m 448 117 l 448 -41 l 366 -41 l 366 119 q 183 199 263 133 q 76 423 76 289 q 182 663 76 571 q 366 745 262 732 l 366 902 l 448 902 l 448 745 q 618 690 526 736 l 631 749 l 709 739 q 696 646 696 682 q 719 515 696 613 l 639 507 q 559 625 629 582 q 418 665 496 665 q 231 604 301 665 q 156 425 156 540 q 240 255 156 319 q 426 197 316 197 q 564 227 498 197 q 686 302 610 248 l 727 239 q 448 117 587 126 z "},"£":{"ha":814,"x_min":122,"x_max":716,"o":"m 122 448 l 243 448 q 233 476 239 461 q 198 654 198 601 q 275 818 198 757 q 452 875 346 875 q 704 734 628 875 l 633 697 q 452 793 575 793 q 328 753 376 793 q 281 639 281 713 q 324 448 281 601 l 529 448 l 529 366 l 345 366 q 353 294 353 323 q 293 85 353 175 q 395 102 343 102 q 489 80 427 102 q 585 58 551 58 q 671 115 617 58 l 716 53 q 556 -20 637 -20 q 461 1 524 -20 q 366 23 399 23 q 198 -30 297 23 l 155 26 q 270 294 270 141 q 262 366 270 323 l 122 366 l 122 448 z "},"§":{"ha":814,"x_min":146,"x_max":667,"o":"m 373 552 q 288 526 335 548 q 228 469 228 498 q 311 395 228 449 l 441 309 q 526 335 479 313 q 586 392 586 363 q 503 467 586 412 l 373 552 m 532 250 l 553 236 q 631 113 631 187 q 594 31 631 62 q 506 0 557 0 l 157 0 l 157 195 l 237 195 l 237 81 l 472 81 q 534 114 534 81 q 461 197 534 148 l 258 334 q 146 471 146 408 q 190 563 146 526 q 282 612 217 586 l 262 625 q 184 749 184 677 q 221 831 184 800 q 309 861 258 861 l 656 861 l 656 666 l 576 666 l 576 780 l 343 780 q 279 747 279 780 q 353 665 279 713 l 556 528 q 667 391 667 453 q 624 298 667 335 q 532 250 597 275 z "},"•":{"ha":814,"x_min":227,"x_max":587,"o":"m 587 407 q 532 281 587 336 q 407 227 477 227 q 281 281 336 227 q 227 407 227 336 q 281 530 227 476 q 407 583 336 583 q 532 530 477 583 q 587 407 587 476 z "},"¶":{"ha":814,"x_min":68,"x_max":732,"o":"m 732 0 l 570 0 l 570 780 l 488 780 l 488 0 l 163 0 l 163 81 l 407 81 l 407 285 q 182 353 282 285 q 68 549 68 430 q 165 772 68 684 q 396 861 262 861 l 732 861 l 732 780 l 651 780 l 651 81 l 732 81 l 732 0 m 407 366 l 407 780 q 228 720 301 780 q 149 552 149 656 q 241 416 149 473 q 407 366 321 366 z "},"ß":{"ha":814,"x_min":41,"x_max":787,"o":"m 787 180 q 692 23 787 77 q 503 -20 614 -20 q 266 54 378 -20 l 317 119 q 496 61 396 61 q 628 84 572 61 q 704 180 704 115 q 593 275 704 228 q 438 332 515 304 q 343 461 345 381 q 406 579 342 537 l 526 637 q 589 718 589 667 q 517 781 589 766 q 407 787 490 787 q 279 765 320 787 q 224 656 224 735 l 224 0 l 41 0 l 41 81 l 142 81 l 142 510 l 45 510 l 45 591 l 142 591 l 142 685 q 221 837 142 793 q 401 868 279 868 q 600 841 543 868 q 671 711 671 807 q 530 549 671 608 q 426 469 426 506 q 519 389 426 423 q 693 323 674 334 q 787 180 787 271 z "},"®":{"ha":814,"x_min":0,"x_max":814,"o":"m 0 393 q 119 682 0 563 q 407 800 237 800 q 695 682 576 800 q 814 393 814 563 q 695 105 814 224 q 407 -14 576 -14 q 119 105 237 -14 q 0 393 0 224 m 81 393 q 176 163 81 258 q 407 68 271 68 q 637 163 543 68 q 732 393 732 258 q 637 624 732 529 q 407 719 543 719 q 176 624 271 719 q 81 393 81 529 m 627 174 l 505 174 q 454 298 473 264 q 389 359 427 347 l 342 359 l 342 247 l 399 247 l 399 174 l 203 174 l 203 247 l 263 247 l 263 562 l 203 562 l 203 635 l 453 635 q 540 602 507 635 q 572 515 572 570 q 548 434 572 469 q 480 384 524 395 q 526 320 509 362 q 557 247 540 286 l 627 247 l 627 174 m 494 511 q 422 562 494 562 l 342 562 l 342 427 l 392 427 q 494 511 494 427 z "},"©":{"ha":814,"x_min":0,"x_max":814,"o":"m 0 393 q 119 682 0 563 q 407 800 237 800 q 695 682 576 800 q 814 393 814 563 q 695 105 814 224 q 407 -14 576 -14 q 119 105 237 -14 q 0 393 0 224 m 81 393 q 176 163 81 258 q 407 68 271 68 q 637 163 543 68 q 732 393 732 258 q 637 624 732 529 q 407 719 543 719 q 176 624 271 719 q 81 393 81 529 m 620 467 l 551 460 q 403 553 543 553 q 292 508 338 553 q 245 397 245 463 q 292 274 245 317 q 419 231 339 231 q 581 286 521 231 l 617 218 q 415 152 521 152 q 236 219 305 152 q 167 396 167 286 q 236 566 167 499 q 408 632 305 632 q 534 590 467 632 q 541 589 537 589 q 553 621 549 589 l 616 614 q 605 541 605 549 q 620 467 605 503 z "},"™":{"ha":814,"x_min":-38,"x_max":852,"o":"m 852 350 l 688 350 l 688 419 l 736 419 l 736 700 l 652 453 l 552 453 l 468 700 l 468 419 l 536 419 l 536 350 l 353 350 l 353 419 l 393 419 l 393 700 l 353 700 l 353 769 l 524 769 l 602 522 l 681 769 l 852 769 l 852 700 l 811 700 l 811 419 l 852 419 l 852 350 m 316 618 l 247 618 l 247 700 l 176 700 l 176 419 l 258 419 l 258 350 l 20 350 l 20 419 l 102 419 l 102 700 l 31 700 l 31 618 l -38 618 l -38 769 l 316 769 l 316 618 z "},"´":{"ha":814,"x_min":366,"x_max":667,"o":"m 366 678 l 519 916 l 667 916 l 437 678 l 366 678 z "},"¨":{"ha":833,"x_min":212,"x_max":627,"o":"m 627 840 l 627 693 l 515 693 l 515 840 l 627 840 m 323 840 l 323 693 l 212 693 l 212 840 l 323 840 z "},"≠":{"ha":833,"x_min":114,"x_max":720,"o":"m 720 224 l 350 224 l 254 57 l 195 92 l 271 224 l 114 224 l 114 298 l 314 298 l 427 493 l 114 493 l 114 568 l 469 568 l 578 757 l 637 722 l 549 568 l 720 568 l 720 493 l 505 493 l 393 298 l 720 298 l 720 224 z "},"Æ":{"ha":814,"x_min":-3,"x_max":773,"o":"m 773 0 l 391 0 l 391 244 l 195 244 l 141 81 l 267 81 l 267 0 l -3 0 l -3 81 l 57 81 l 274 699 l 149 699 l 149 780 l 754 780 l 758 529 l 681 529 l 669 699 l 472 699 l 472 448 l 556 448 l 556 509 l 637 509 l 637 305 l 556 305 l 556 366 l 472 366 l 472 81 l 688 81 l 696 250 l 773 250 l 773 0 m 351 699 l 227 326 l 391 326 l 391 699 l 351 699 z "},"Ø":{"ha":833,"x_min":69,"x_max":764,"o":"m 175 82 q 69 397 69 198 q 164 699 69 583 q 416 815 258 815 q 602 761 521 815 l 654 846 l 717 807 l 657 713 q 764 397 764 593 q 669 94 764 209 q 416 -21 574 -21 q 232 33 313 -21 l 179 -52 l 117 -12 l 175 82 m 224 160 l 558 692 q 416 741 501 741 q 235 649 301 741 q 170 397 170 557 q 224 160 170 248 m 608 633 l 273 102 q 416 54 334 54 q 599 144 534 54 q 664 397 664 235 q 608 633 664 541 z "},"∞":{"ha":833,"x_min":126,"x_max":707,"o":"m 404 539 q 536 635 445 635 q 660 578 612 635 q 707 433 707 521 q 660 289 707 347 q 536 231 614 231 q 404 326 445 231 q 279 257 355 257 q 169 308 212 257 q 126 433 126 358 q 169 558 126 507 q 279 608 212 608 q 404 539 355 608 m 536 306 q 605 341 579 306 q 631 433 631 376 q 605 525 631 490 q 536 559 579 559 q 469 525 494 559 q 444 433 444 490 q 469 341 444 376 q 536 306 494 306 m 279 332 q 345 360 319 332 q 370 433 370 389 q 345 505 370 477 q 279 533 319 533 q 222 506 243 533 q 200 433 200 478 q 222 360 200 388 q 279 332 243 332 z "},"±":{"ha":814,"x_min":102,"x_max":712,"o":"m 712 54 l 102 54 l 102 136 l 712 136 l 712 54 m 712 468 l 448 468 l 448 203 l 366 203 l 366 468 l 102 468 l 102 549 l 366 549 l 366 814 l 448 814 l 448 549 l 712 549 l 712 468 z "},"≤":{"ha":814,"x_min":68,"x_max":743,"o":"m 707 -115 l 75 186 l 75 275 l 743 -35 l 707 -115 m 743 182 l 707 106 l 68 407 l 707 709 l 743 633 l 256 407 l 743 182 z "},"≥":{"ha":814,"x_min":43,"x_max":746,"o":"m 134 -115 l 95 -35 l 739 275 l 739 186 l 134 -115 m 71 182 l 557 407 l 43 633 l 107 709 l 746 407 l 107 106 l 71 182 z "},"¥":{"ha":814,"x_min":41,"x_max":773,"o":"m 773 780 l 692 780 l 494 515 l 690 515 l 690 434 l 448 434 l 448 353 l 690 353 l 690 271 l 448 271 l 448 79 l 610 79 l 610 0 l 203 0 l 203 79 l 366 79 l 366 271 l 122 271 l 122 353 l 366 353 l 366 434 l 122 434 l 122 515 l 320 515 l 122 780 l 41 780 l 41 861 l 326 861 l 326 780 l 222 780 l 407 536 l 591 780 l 488 780 l 488 861 l 773 861 l 773 780 z "},"µ":{"ha":814,"x_min":22,"x_max":769,"o":"m 769 0 l 570 0 l 570 71 q 376 -20 473 -20 q 217 41 269 -20 l 217 -217 l 136 -217 l 136 509 l 22 509 l 22 590 l 217 590 l 217 199 q 262 100 217 136 q 368 66 302 66 q 570 189 488 66 l 570 509 l 465 509 l 465 590 l 651 590 l 651 81 l 769 81 l 769 0 z "},"∂":{"ha":814,"x_min":109,"x_max":674,"o":"m 298 -20 q 159 35 210 -20 q 109 179 109 90 q 271 452 109 362 q 598 526 397 522 q 582 688 595 639 q 476 784 555 784 q 279 643 343 784 l 220 699 q 476 861 278 861 q 674 530 674 861 q 547 109 674 263 q 298 -20 439 -20 m 183 178 q 216 91 183 125 q 301 57 248 57 q 517 193 437 57 q 595 449 576 294 q 183 178 183 437 z "},"∑":{"ha":814,"x_min":81,"x_max":732,"o":"m 732 861 l 732 658 l 651 658 l 651 780 l 179 780 l 453 353 l 179 -75 l 651 -75 l 651 47 l 732 47 l 732 -156 l 81 -156 l 81 -75 l 357 353 l 81 780 l 81 861 l 732 861 z "},"∏":{"ha":1143,"x_min":0,"x_max":0,"o":""},"∫":{"ha":380,"x_min":0,"x_max":0,"o":""},"ª":{"ha":514,"x_min":0,"x_max":0,"o":""},"º":{"ha":507,"x_min":0,"x_max":0,"o":""},"Ω":{"ha":814,"x_min":0,"x_max":812,"o":"m 812 191 l 773 0 l 472 0 l 472 127 q 623 247 562 160 q 685 427 685 334 q 604 627 685 544 q 407 709 522 709 q 210 626 292 709 q 129 427 129 543 q 191 247 129 334 q 342 127 252 160 l 342 0 l 37 0 l 0 191 l 28 191 q 106 81 41 152 l 266 81 q 107 224 170 122 q 47 430 47 321 q 151 686 47 582 q 407 791 255 791 q 662 687 560 791 q 764 430 764 583 q 703 222 764 321 q 545 81 642 123 l 708 81 q 783 191 739 118 l 812 191 z "},"æ":{"ha":814,"x_min":19,"x_max":784,"o":"m 784 15 q 597 -20 682 -20 q 480 13 534 -20 q 399 102 426 46 q 180 -20 293 -20 q 61 39 107 -20 q 19 170 19 94 q 85 314 19 255 q 237 373 151 373 q 355 359 286 373 l 355 403 q 263 533 355 533 q 92 494 186 533 l 69 567 q 263 612 186 612 q 414 522 382 612 q 578 612 476 612 q 731 518 675 612 q 779 334 779 439 q 776 270 779 343 l 438 270 q 477 125 439 182 q 605 58 521 58 q 755 88 669 58 l 784 15 m 696 349 q 670 468 694 419 q 576 533 639 533 q 472 471 511 533 q 438 349 438 418 l 696 349 m 355 163 l 355 281 q 269 294 323 294 q 157 263 202 294 q 106 164 106 228 q 132 90 106 122 q 198 58 157 58 q 286 95 236 58 q 355 163 330 126 z "},"ø":{"ha":833,"x_min":53,"x_max":781,"o":"m 151 102 q 85 302 85 189 q 179 528 85 439 q 416 616 273 616 q 632 549 541 616 l 730 640 l 781 585 l 685 496 q 749 302 749 414 q 654 71 749 164 q 416 -22 559 -22 q 204 49 296 -22 l 103 -46 l 53 9 l 151 102 m 220 165 l 570 490 q 416 542 507 542 q 249 475 313 542 q 184 302 184 408 q 220 165 184 227 m 616 432 l 267 107 q 416 53 326 53 q 584 124 519 53 q 648 302 648 195 q 616 432 648 374 z "},"¿":{"ha":848,"x_min":0,"x_max":0,"o":""},"¡":{"ha":463,"x_min":0,"x_max":0,"o":""},"¬":{"ha":811,"x_min":0,"x_max":0,"o":""},"√":{"ha":762,"x_min":0,"x_max":0,"o":""},"ƒ":{"ha":772,"x_min":0,"x_max":0,"o":""},"≈":{"ha":762,"x_min":0,"x_max":0,"o":""},"∆":{"ha":850,"x_min":0,"x_max":0,"o":""},"«":{"ha":814,"x_min":41,"x_max":773,"o":"m 475 136 l 434 81 l 41 353 l 434 624 l 475 570 l 217 353 l 475 136 m 773 136 l 732 81 l 339 353 l 732 624 l 773 570 l 515 353 l 773 136 z "},"»":{"ha":814,"x_min":41,"x_max":773,"o":"m 339 136 l 616 353 l 339 570 l 380 624 l 773 353 l 380 81 l 339 136 m 41 136 l 317 353 l 41 570 l 81 624 l 475 353 l 81 81 l 41 136 z "},"…":{"ha":1389,"x_min":0,"x_max":0,"o":""},"À":{"ha":814,"x_min":0,"x_max":814,"o":"m 448 848 l 377 848 l 146 1085 l 294 1085 l 448 848 m 814 0 l 543 0 l 543 81 l 651 81 l 583 244 l 231 244 l 163 81 l 271 81 l 271 0 l 0 0 l 0 81 l 75 81 l 332 699 l 142 699 l 142 780 l 446 780 l 739 81 l 814 81 l 814 0 m 549 326 l 407 662 l 264 326 l 549 326 z "},"Ã":{"ha":814,"x_min":0,"x_max":814,"o":"m 814 0 l 543 0 l 543 81 l 651 81 l 583 244 l 231 244 l 163 81 l 271 81 l 271 0 l 0 0 l 0 81 l 75 81 l 332 699 l 142 699 l 142 780 l 446 780 l 739 81 l 814 81 l 814 0 m 549 326 l 407 662 l 264 326 l 549 326 m 692 1085 q 633 944 671 1004 q 515 861 582 861 q 407 902 457 861 q 338 979 382 922 q 289 1020 305 1020 q 214 956 258 1020 q 164 861 180 906 l 121 861 q 298 1085 175 1085 q 414 1008 349 1085 q 529 930 480 930 q 602 993 560 930 q 651 1085 636 1042 l 692 1085 z "},"Õ":{"ha":814,"x_min":61,"x_max":753,"o":"m 407 -14 q 134 90 217 -14 q 61 377 61 182 l 61 404 q 134 692 61 600 q 407 793 217 793 q 678 692 597 793 q 753 404 753 600 l 753 377 q 680 90 753 182 q 407 -14 597 -14 m 142 377 q 193 146 142 214 q 407 68 251 68 q 621 146 563 68 q 671 377 671 214 l 671 404 q 621 633 671 567 q 407 712 562 712 q 193 633 252 712 q 142 404 142 567 l 142 377 m 692 1085 q 633 944 671 1004 q 515 861 582 861 q 407 902 457 861 q 338 979 382 922 q 289 1020 305 1020 q 214 956 258 1020 q 164 861 180 906 l 121 861 q 298 1085 175 1085 q 414 1008 349 1085 q 529 930 480 930 q 602 993 560 930 q 651 1085 636 1042 l 692 1085 z "},"Œ":{"ha":1389,"x_min":0,"x_max":0,"o":""},"œ":{"ha":1311,"x_min":0,"x_max":0,"o":""},"–":{"ha":814,"x_min":163,"x_max":651,"o":"m 651 271 l 163 271 l 163 353 l 651 353 l 651 271 z "},"—":{"ha":814,"x_min":41,"x_max":773,"o":"m 773 271 l 41 271 l 41 353 l 773 353 l 773 271 z "},"“":{"ha":814,"x_min":221,"x_max":591,"o":"m 543 438 l 475 438 l 426 779 q 450 826 425 808 q 509 844 476 844 q 566 826 541 844 q 591 779 591 808 l 543 438 m 339 438 l 271 438 l 222 779 q 247 826 221 808 q 305 844 273 844 q 363 826 338 844 q 388 779 388 808 l 339 438 z "},"”":{"ha":814,"x_min":140,"x_max":665,"o":"m 646 632 q 445 441 606 492 l 445 511 l 495 529 q 566 604 566 556 q 515 636 566 627 q 445 724 445 648 q 476 789 445 764 q 548 814 507 814 q 646 749 618 814 q 646 632 665 701 m 340 632 q 140 441 301 492 l 140 511 l 190 529 q 260 604 260 556 q 210 636 260 627 q 140 724 140 648 q 171 789 140 764 q 243 814 202 814 q 340 749 313 814 q 340 632 359 701 z "},"‘":{"ha":814,"x_min":290,"x_max":510,"o":"m 510 538 q 478 474 510 499 q 407 449 446 449 q 309 514 336 449 q 309 631 290 562 q 510 822 349 770 l 510 751 l 460 734 q 389 659 389 707 q 441 627 389 636 q 491 596 472 621 q 510 538 510 571 z "},"’":{"ha":814,"x_min":304,"x_max":524,"o":"m 505 652 q 304 461 465 513 l 304 532 l 354 549 q 425 624 425 576 q 374 656 425 647 q 304 745 304 669 q 335 809 304 784 q 407 834 366 834 q 505 769 477 834 q 505 652 524 722 z "},"÷":{"ha":814,"x_min":109,"x_max":705,"o":"m 483 625 q 460 572 483 594 q 407 549 438 549 q 353 572 376 549 q 331 625 331 594 q 353 679 331 656 q 407 701 376 701 q 461 680 439 701 q 483 625 483 658 m 705 366 l 109 366 l 109 448 l 705 448 l 705 366 m 483 182 q 461 127 483 149 q 407 106 439 106 q 353 127 374 106 q 331 182 331 149 q 353 235 331 213 q 407 258 376 258 q 460 235 438 258 q 483 182 483 213 z "},"◊":{"ha":686,"x_min":0,"x_max":0,"o":""},"ÿ":{"ha":694,"x_min":0,"x_max":0,"o":""},"Ÿ":{"ha":926,"x_min":0,"x_max":0,"o":""},"⁄":{"ha":814,"x_min":161,"x_max":652,"o":"m 579 894 l 652 861 l 235 -80 l 161 -47 l 579 894 z "},"∕":{"ha":814,"x_min":161,"x_max":652,"o":"m 579 894 l 652 861 l 235 -80 l 161 -47 l 579 894 z "},"€":{"ha":833,"x_min":0,"x_max":750,"o":"m 92 447 l 0 447 l 36 517 l 102 517 q 215 737 130 659 q 425 815 301 815 q 550 793 490 815 q 639 737 611 771 l 639 815 l 714 815 l 714 581 l 647 581 q 561 701 625 661 q 425 741 496 741 q 200 517 245 741 l 513 517 l 476 447 l 192 447 q 191 397 191 432 q 192 354 191 367 l 428 354 l 392 285 l 199 285 q 439 54 240 54 q 713 155 569 54 l 750 92 q 586 4 657 30 q 439 -21 515 -21 q 216 58 305 -21 q 100 285 127 138 l 0 285 l 36 354 l 92 354 q 90 397 90 367 q 92 447 90 432 z "},"‹":{"ha":814,"x_min":190,"x_max":614,"o":"m 614 126 l 583 81 l 190 353 l 583 624 l 614 579 l 366 353 l 614 126 z "},"›":{"ha":814,"x_min":199,"x_max":624,"o":"m 199 126 l 448 353 l 199 579 l 231 624 l 624 353 l 231 81 l 199 126 z "},"":{"ha":694,"x_min":0,"x_max":0,"o":""},"ﬁ":{"ha":694,"x_min":0,"x_max":0,"o":""},"":{"ha":694,"x_min":0,"x_max":0,"o":""},"ﬂ":{"ha":694,"x_min":0,"x_max":0,"o":""},"‡":{"ha":772,"x_min":0,"x_max":0,"o":""},"·":{"ha":814,"x_min":304,"x_max":510,"o":"m 510 64 q 479 -1 510 24 q 407 -27 448 -27 q 335 -1 366 -27 q 304 64 304 24 q 334 130 304 104 q 407 155 365 155 q 479 130 449 155 q 510 64 510 104 z "},"∙":{"ha":814,"x_min":304,"x_max":510,"o":"m 510 64 q 479 -1 510 24 q 407 -27 448 -27 q 335 -1 366 -27 q 304 64 304 24 q 334 130 304 104 q 407 155 365 155 q 479 130 449 155 q 510 64 510 104 z "},"‚":{"ha":814,"x_min":304,"x_max":524,"o":"m 505 -26 q 304 -217 465 -165 l 304 -146 l 354 -129 q 425 -54 425 -102 q 374 -22 425 -31 q 304 66 304 -9 q 335 131 304 106 q 407 156 366 156 q 505 91 477 156 q 505 -26 524 43 z "},"„":{"ha":814,"x_min":155,"x_max":680,"o":"m 661 -26 q 460 -217 621 -165 l 460 -146 l 510 -129 q 581 -54 581 -102 q 530 -22 581 -31 q 460 66 460 -9 q 491 131 460 106 q 563 156 522 156 q 661 91 633 156 q 661 -26 680 43 m 355 -26 q 155 -217 316 -165 l 155 -146 l 205 -129 q 275 -54 275 -102 q 225 -22 275 -31 q 155 66 155 -9 q 186 131 155 106 q 258 156 217 156 q 355 91 328 156 q 355 -26 374 43 z "},"‰":{"ha":1389,"x_min":0,"x_max":0,"o":""},"Â":{"ha":814,"x_min":0,"x_max":814,"o":"m 814 0 l 543 0 l 543 81 l 651 81 l 583 244 l 231 244 l 163 81 l 271 81 l 271 0 l 0 0 l 0 81 l 75 81 l 332 699 l 142 699 l 142 780 l 446 780 l 739 81 l 814 81 l 814 0 m 549 326 l 407 662 l 264 326 l 549 326 m 656 863 l 612 829 l 407 1013 l 203 829 l 159 863 l 346 1085 l 468 1085 l 656 863 z "},"Ê":{"ha":814,"x_min":65,"x_max":753,"o":"m 753 0 l 65 0 l 65 81 l 186 81 l 186 699 l 65 699 l 65 780 l 732 780 l 732 533 l 661 534 l 647 699 l 267 699 l 267 448 l 475 448 l 475 543 l 556 543 l 556 271 l 475 271 l 475 366 l 267 366 l 267 81 l 667 81 l 675 259 l 753 259 l 753 0 m 656 863 l 612 829 l 407 1013 l 203 829 l 159 863 l 346 1085 l 468 1085 l 656 863 z "},"Á":{"ha":814,"x_min":0,"x_max":814,"o":"m 366 848 l 519 1085 l 667 1085 l 437 848 l 366 848 m 814 0 l 543 0 l 543 81 l 651 81 l 583 244 l 231 244 l 163 81 l 271 81 l 271 0 l 0 0 l 0 81 l 75 81 l 332 699 l 142 699 l 142 780 l 446 780 l 739 81 l 814 81 l 814 0 m 549 326 l 407 662 l 264 326 l 549 326 z "},"Ë":{"ha":814,"x_min":65,"x_max":753,"o":"m 753 0 l 65 0 l 65 81 l 186 81 l 186 699 l 65 699 l 65 780 l 732 780 l 732 533 l 661 534 l 647 699 l 267 699 l 267 448 l 475 448 l 475 543 l 556 543 l 556 271 l 475 271 l 475 366 l 267 366 l 267 81 l 667 81 l 675 259 l 753 259 l 753 0 m 543 875 q 485 899 509 875 q 461 956 461 922 q 485 1014 461 990 q 543 1038 509 1038 q 600 1014 576 1038 q 624 956 624 990 q 600 899 624 922 q 543 875 576 875 m 271 875 q 214 899 237 875 q 190 956 190 922 q 214 1014 190 990 q 271 1038 237 1038 q 329 1014 305 1038 q 353 956 353 990 q 329 899 353 922 q 271 875 305 875 z "},"È":{"ha":814,"x_min":65,"x_max":753,"o":"m 753 0 l 65 0 l 65 81 l 186 81 l 186 699 l 65 699 l 65 780 l 732 780 l 732 533 l 661 534 l 647 699 l 267 699 l 267 448 l 475 448 l 475 543 l 556 543 l 556 271 l 475 271 l 475 366 l 267 366 l 267 81 l 667 81 l 675 259 l 753 259 l 753 0 m 448 848 l 377 848 l 146 1085 l 294 1085 l 448 848 z "},"Í":{"ha":814,"x_min":122,"x_max":692,"o":"m 692 0 l 122 0 l 122 81 l 366 81 l 366 699 l 122 699 l 122 780 l 692 780 l 692 699 l 448 699 l 448 81 l 692 81 l 692 0 m 366 849 l 519 1086 l 667 1086 l 437 849 l 366 849 z "},"Î":{"ha":814,"x_min":122,"x_max":692,"o":"m 692 0 l 122 0 l 122 81 l 366 81 l 366 699 l 122 699 l 122 780 l 692 780 l 692 699 l 448 699 l 448 81 l 692 81 l 692 0 m 656 863 l 612 829 l 407 1013 l 203 829 l 159 863 l 346 1085 l 468 1085 l 656 863 z "},"Ï":{"ha":814,"x_min":122,"x_max":692,"o":"m 692 0 l 122 0 l 122 81 l 366 81 l 366 699 l 122 699 l 122 780 l 692 780 l 692 699 l 448 699 l 448 81 l 692 81 l 692 0 m 543 875 q 485 899 509 875 q 461 956 461 922 q 485 1014 461 990 q 543 1038 509 1038 q 600 1014 576 1038 q 624 956 624 990 q 600 899 624 922 q 543 875 576 875 m 271 875 q 214 899 237 875 q 190 956 190 922 q 214 1014 190 990 q 271 1038 237 1038 q 329 1014 305 1038 q 353 956 353 990 q 329 899 353 922 q 271 875 305 875 z "},"Ì":{"ha":814,"x_min":122,"x_max":692,"o":"m 692 0 l 122 0 l 122 81 l 366 81 l 366 699 l 122 699 l 122 780 l 692 780 l 692 699 l 448 699 l 448 81 l 692 81 l 692 0 m 448 848 l 377 848 l 146 1085 l 294 1085 l 448 848 z "},"Ó":{"ha":814,"x_min":61,"x_max":753,"o":"m 366 848 l 519 1085 l 667 1085 l 437 848 l 366 848 m 407 -14 q 134 90 217 -14 q 61 377 61 182 l 61 404 q 134 692 61 600 q 407 793 217 793 q 678 692 597 793 q 753 404 753 600 l 753 377 q 680 90 753 182 q 407 -14 597 -14 m 142 377 q 193 146 142 214 q 407 68 251 68 q 621 146 563 68 q 671 377 671 214 l 671 404 q 621 633 671 567 q 407 712 562 712 q 193 633 252 712 q 142 404 142 567 l 142 377 z "},"Ô":{"ha":814,"x_min":61,"x_max":753,"o":"m 407 -14 q 134 90 217 -14 q 61 377 61 182 l 61 404 q 134 692 61 600 q 407 793 217 793 q 678 692 597 793 q 753 404 753 600 l 753 377 q 680 90 753 182 q 407 -14 597 -14 m 142 377 q 193 146 142 214 q 407 68 251 68 q 621 146 563 68 q 671 377 671 214 l 671 404 q 621 633 671 567 q 407 712 562 712 q 193 633 252 712 q 142 404 142 567 l 142 377 m 656 863 l 612 829 l 407 1013 l 203 829 l 159 863 l 346 1085 l 468 1085 l 656 863 z "},"Ò":{"ha":814,"x_min":61,"x_max":753,"o":"m 448 848 l 377 848 l 146 1085 l 294 1085 l 448 848 m 407 -14 q 134 90 217 -14 q 61 377 61 182 l 61 404 q 134 692 61 600 q 407 793 217 793 q 678 692 597 793 q 753 404 753 600 l 753 377 q 680 90 753 182 q 407 -14 597 -14 m 142 377 q 193 146 142 214 q 407 68 251 68 q 621 146 563 68 q 671 377 671 214 l 671 404 q 621 633 671 567 q 407 712 562 712 q 193 633 252 712 q 142 404 142 567 l 142 377 z "},"Ú":{"ha":814,"x_min":20,"x_max":793,"o":"m 793 699 l 699 699 l 699 266 q 622 58 699 130 q 407 -14 545 -14 q 193 61 270 -14 q 115 273 115 136 l 115 699 l 20 699 l 20 780 l 326 780 l 326 699 l 197 699 l 197 323 q 407 68 197 68 q 575 140 524 68 q 617 323 617 201 l 617 699 l 488 699 l 488 780 l 793 780 l 793 699 m 366 848 l 519 1085 l 667 1085 l 437 848 l 366 848 z "},"Û":{"ha":814,"x_min":20,"x_max":793,"o":"m 793 699 l 699 699 l 699 266 q 622 58 699 130 q 407 -14 545 -14 q 193 61 270 -14 q 115 273 115 136 l 115 699 l 20 699 l 20 780 l 326 780 l 326 699 l 197 699 l 197 323 q 407 68 197 68 q 575 140 524 68 q 617 323 617 201 l 617 699 l 488 699 l 488 780 l 793 780 l 793 699 m 656 863 l 612 829 l 407 1013 l 203 829 l 159 863 l 346 1085 l 468 1085 l 656 863 z "},"Ù":{"ha":814,"x_min":20,"x_max":793,"o":"m 793 699 l 699 699 l 699 266 q 622 58 699 130 q 407 -14 545 -14 q 193 61 270 -14 q 115 273 115 136 l 115 699 l 20 699 l 20 780 l 326 780 l 326 699 l 197 699 l 197 323 q 407 68 197 68 q 575 140 524 68 q 617 323 617 201 l 617 699 l 488 699 l 488 780 l 793 780 l 793 699 m 448 848 l 377 848 l 146 1085 l 294 1085 l 448 848 z "},"ı":{"ha":386,"x_min":0,"x_max":0,"o":""},"ˆ":{"ha":814,"x_min":159,"x_max":656,"o":"m 656 693 l 612 659 l 407 844 l 203 659 l 159 693 l 346 916 l 468 916 l 656 693 z "},"˜":{"ha":463,"x_min":0,"x_max":0,"o":""},"ˉ":{"ha":463,"x_min":0,"x_max":0,"o":""},"˘":{"ha":463,"x_min":0,"x_max":0,"o":""},"˙":{"ha":463,"x_min":0,"x_max":0,"o":""},"˚":{"ha":814,"x_min":289,"x_max":525,"o":"m 525 787 q 491 703 525 736 q 407 669 457 669 q 323 703 357 669 q 289 787 289 736 q 323 870 289 836 q 407 905 358 905 q 490 870 456 905 q 525 787 525 836 m 464 787 q 447 827 464 810 q 407 844 430 844 q 367 827 384 844 q 350 787 350 810 q 367 747 350 764 q 407 730 384 730 q 447 747 430 730 q 464 787 464 764 z "},"¸":{"ha":463,"x_min":0,"x_max":0,"o":""},"˝":{"ha":463,"x_min":0,"x_max":0,"o":""},"˛":{"ha":463,"x_min":0,"x_max":0,"o":""},"ˇ":{"ha":463,"x_min":0,"x_max":0,"o":""},"Ł":{"ha":772,"x_min":0,"x_max":0,"o":""},"ł":{"ha":309,"x_min":0,"x_max":0,"o":""},"Š":{"ha":926,"x_min":0,"x_max":0,"o":""},"š":{"ha":694,"x_min":0,"x_max":0,"o":""},"Ž":{"ha":848,"x_min":0,"x_max":0,"o":""},"ž":{"ha":694,"x_min":0,"x_max":0,"o":""},"¦":{"ha":361,"x_min":0,"x_max":0,"o":""},"Ð":{"ha":1003,"x_min":0,"x_max":0,"o":""},"ð":{"ha":772,"x_min":0,"x_max":0,"o":""},"Ý":{"ha":926,"x_min":0,"x_max":0,"o":""},"ý":{"ha":694,"x_min":0,"x_max":0,"o":""},"Þ":{"ha":926,"x_min":0,"x_max":0,"o":""},"þ":{"ha":772,"x_min":0,"x_max":0,"o":""},"−":{"ha":811,"x_min":0,"x_max":0,"o":""},"×":{"ha":811,"x_min":0,"x_max":0,"o":""},"¹":{"ha":463,"x_min":0,"x_max":0,"o":""},"²":{"ha":463,"x_min":0,"x_max":0,"o":""},"³":{"ha":463,"x_min":0,"x_max":0,"o":""},"½":{"ha":814,"x_min":41,"x_max":773,"o":"m 598 936 l 671 902 l 216 -75 l 142 -41 l 598 936 m 366 454 l 41 454 l 41 536 l 163 536 l 163 770 l 68 726 l 47 784 l 163 861 l 244 861 l 244 536 l 366 536 l 366 454 m 773 293 q 675 152 773 222 l 568 75 l 699 75 l 699 114 l 773 114 l 773 0 l 448 0 l 448 96 l 575 172 q 682 271 682 236 q 658 314 682 298 q 605 330 633 330 q 555 320 582 330 q 518 290 522 308 l 518 271 l 448 271 l 448 334 q 524 389 469 369 q 617 407 568 407 q 716 374 665 407 q 773 293 773 338 z "},"¼":{"ha":814,"x_min":41,"x_max":773,"o":"m 598 936 l 671 902 l 216 -75 l 142 -41 l 598 936 m 366 454 l 41 454 l 41 536 l 163 536 l 163 770 l 68 726 l 47 784 l 163 861 l 244 861 l 244 536 l 366 536 l 366 454 m 712 0 l 637 0 l 637 95 l 448 95 l 448 179 l 586 407 l 712 407 l 712 170 l 773 170 l 773 95 l 712 95 l 712 0 m 637 170 l 637 332 l 628 332 l 532 170 l 637 170 z "},"¾":{"ha":814,"x_min":43,"x_max":773,"o":"m 598 936 l 671 902 l 216 -75 l 142 -41 l 598 936 m 712 0 l 637 0 l 637 95 l 448 95 l 448 179 l 586 407 l 712 407 l 712 170 l 773 170 l 773 95 l 712 95 l 712 0 m 637 170 l 637 332 l 628 332 l 532 170 l 637 170 m 372 570 q 323 469 372 505 q 213 439 281 439 q 43 483 141 439 l 77 552 q 198 514 145 514 q 293 576 293 514 q 236 617 293 604 q 159 627 198 627 l 159 682 q 273 749 273 692 q 198 784 273 784 q 90 745 141 784 l 53 803 q 201 859 137 859 q 349 751 349 859 q 305 670 349 708 q 372 570 372 627 z "},"₣":{"ha":772,"x_min":0,"x_max":0,"o":""},"Ğ":{"ha":1080,"x_min":0,"x_max":0,"o":""},"ğ":{"ha":772,"x_min":0,"x_max":0,"o":""},"İ":{"ha":386,"x_min":0,"x_max":0,"o":""},"Ş":{"ha":926,"x_min":0,"x_max":0,"o":""},"ş":{"ha":694,"x_min":0,"x_max":0,"o":""},"Ć":{"ha":1003,"x_min":0,"x_max":0,"o":""},"ć":{"ha":694,"x_min":0,"x_max":0,"o":""},"Č":{"ha":1003,"x_min":0,"x_max":0,"o":""},"č":{"ha":694,"x_min":0,"x_max":0,"o":""},"đ":{"ha":772,"x_min":0,"x_max":0,"o":""},"¤":{"ha":814,"x_min":91,"x_max":724,"o":"m 244 407 q 292 292 244 339 q 407 244 339 244 q 522 292 475 244 q 570 407 570 339 q 522 522 570 475 q 407 570 475 570 q 292 522 339 570 q 244 407 244 475 m 163 407 q 209 549 163 486 l 91 666 l 149 723 l 266 606 q 407 651 330 651 q 549 605 486 651 l 666 723 l 724 666 l 606 548 q 651 407 651 484 q 606 266 651 330 l 724 148 l 666 91 l 549 209 q 407 163 486 163 q 266 208 330 163 l 149 91 l 91 148 l 209 264 q 163 407 163 328 z "},"¯":{"ha":767,"x_min":0,"x_max":0,"o":""},"Ā":{"ha":926,"x_min":0,"x_max":0,"o":""},"ā":{"ha":772,"x_min":0,"x_max":0,"o":""},"Ă":{"ha":926,"x_min":0,"x_max":0,"o":""},"ă":{"ha":772,"x_min":0,"x_max":0,"o":""},"Ą":{"ha":926,"x_min":0,"x_max":0,"o":""},"ą":{"ha":772,"x_min":0,"x_max":0,"o":""},"Ĉ":{"ha":1003,"x_min":0,"x_max":0,"o":""},"ĉ":{"ha":694,"x_min":0,"x_max":0,"o":""},"Ċ":{"ha":1003,"x_min":0,"x_max":0,"o":""},"ċ":{"ha":694,"x_min":0,"x_max":0,"o":""},"Ď":{"ha":1003,"x_min":0,"x_max":0,"o":""},"ď":{"ha":854,"x_min":0,"x_max":0,"o":""},"Đ":{"ha":1003,"x_min":0,"x_max":0,"o":""},"Ē":{"ha":926,"x_min":0,"x_max":0,"o":""},"ē":{"ha":772,"x_min":0,"x_max":0,"o":""},"Ĕ":{"ha":926,"x_min":0,"x_max":0,"o":""},"ĕ":{"ha":772,"x_min":0,"x_max":0,"o":""},"Ė":{"ha":926,"x_min":0,"x_max":0,"o":""},"ė":{"ha":772,"x_min":0,"x_max":0,"o":""},"Ę":{"ha":926,"x_min":0,"x_max":0,"o":""},"ę":{"ha":772,"x_min":0,"x_max":0,"o":""},"Ě":{"ha":926,"x_min":0,"x_max":0,"o":""},"ě":{"ha":772,"x_min":0,"x_max":0,"o":""},"Ĝ":{"ha":1080,"x_min":0,"x_max":0,"o":""},"ĝ":{"ha":772,"x_min":0,"x_max":0,"o":""},"Ġ":{"ha":1080,"x_min":0,"x_max":0,"o":""},"ġ":{"ha":772,"x_min":0,"x_max":0,"o":""},"Ģ":{"ha":1080,"x_min":0,"x_max":0,"o":""},"ģ":{"ha":772,"x_min":0,"x_max":0,"o":""},"Ĥ":{"ha":1003,"x_min":0,"x_max":0,"o":""},"ĥ":{"ha":772,"x_min":0,"x_max":0,"o":""},"Ħ":{"ha":1003,"x_min":0,"x_max":0,"o":""},"ħ":{"ha":772,"x_min":0,"x_max":0,"o":""},"Ĩ":{"ha":386,"x_min":0,"x_max":0,"o":""},"ĩ":{"ha":386,"x_min":0,"x_max":0,"o":""},"Ī":{"ha":386,"x_min":0,"x_max":0,"o":""},"ī":{"ha":386,"x_min":0,"x_max":0,"o":""},"Ĭ":{"ha":386,"x_min":0,"x_max":0,"o":""},"ĭ":{"ha":386,"x_min":0,"x_max":0,"o":""},"Į":{"ha":386,"x_min":0,"x_max":0,"o":""},"į":{"ha":309,"x_min":0,"x_max":0,"o":""},"Ĳ":{"ha":1021,"x_min":0,"x_max":0,"o":""},"ĳ":{"ha":616,"x_min":0,"x_max":0,"o":""},"Ĵ":{"ha":694,"x_min":0,"x_max":0,"o":""},"ĵ":{"ha":309,"x_min":0,"x_max":0,"o":""},"Ķ":{"ha":926,"x_min":0,"x_max":0,"o":""},"ķ":{"ha":694,"x_min":0,"x_max":0,"o":""},"ĸ":{"ha":694,"x_min":0,"x_max":0,"o":""},"Ĺ":{"ha":772,"x_min":0,"x_max":0,"o":""},"ĺ":{"ha":309,"x_min":0,"x_max":0,"o":""},"Ļ":{"ha":772,"x_min":0,"x_max":0,"o":""},"ļ":{"ha":309,"x_min":0,"x_max":0,"o":""},"Ľ":{"ha":772,"x_min":0,"x_max":0,"o":""},"ľ":{"ha":405,"x_min":0,"x_max":0,"o":""},"Ŀ":{"ha":772,"x_min":0,"x_max":0,"o":""},"ŀ":{"ha":464,"x_min":0,"x_max":0,"o":""},"Ń":{"ha":1003,"x_min":0,"x_max":0,"o":""},"ń":{"ha":772,"x_min":0,"x_max":0,"o":""},"Ņ":{"ha":1003,"x_min":0,"x_max":0,"o":""},"ņ":{"ha":772,"x_min":0,"x_max":0,"o":""},"Ň":{"ha":1003,"x_min":0,"x_max":0,"o":""},"ň":{"ha":772,"x_min":0,"x_max":0,"o":""},"ŉ":{"ha":839,"x_min":0,"x_max":0,"o":""},"Ŋ":{"ha":1004,"x_min":0,"x_max":0,"o":""},"ŋ":{"ha":772,"x_min":0,"x_max":0,"o":""},"Ō":{"ha":1080,"x_min":0,"x_max":0,"o":""},"ō":{"ha":772,"x_min":0,"x_max":0,"o":""},"Ŏ":{"ha":1080,"x_min":0,"x_max":0,"o":""},"ŏ":{"ha":772,"x_min":0,"x_max":0,"o":""},"Ő":{"ha":1080,"x_min":0,"x_max":0,"o":""},"ő":{"ha":772,"x_min":0,"x_max":0,"o":""},"Ŕ":{"ha":1003,"x_min":0,"x_max":0,"o":""},"ŕ":{"ha":463,"x_min":0,"x_max":0,"o":""},"Ŗ":{"ha":1003,"x_min":0,"x_max":0,"o":""},"ŗ":{"ha":463,"x_min":0,"x_max":0,"o":""},"Ř":{"ha":1003,"x_min":0,"x_max":0,"o":""},"ř":{"ha":463,"x_min":0,"x_max":0,"o":""},"Ś":{"ha":926,"x_min":0,"x_max":0,"o":""},"ś":{"ha":694,"x_min":0,"x_max":0,"o":""},"Ŝ":{"ha":926,"x_min":0,"x_max":0,"o":""},"ŝ":{"ha":694,"x_min":0,"x_max":0,"o":""},"Ţ":{"ha":848,"x_min":0,"x_max":0,"o":""},"ţ":{"ha":386,"x_min":0,"x_max":0,"o":""},"Ť":{"ha":848,"x_min":0,"x_max":0,"o":""},"ť":{"ha":521,"x_min":0,"x_max":0,"o":""},"Ŧ":{"ha":848,"x_min":0,"x_max":0,"o":""},"ŧ":{"ha":386,"x_min":0,"x_max":0,"o":""},"Ũ":{"ha":1003,"x_min":0,"x_max":0,"o":""},"ũ":{"ha":772,"x_min":0,"x_max":0,"o":""},"Ū":{"ha":1003,"x_min":0,"x_max":0,"o":""},"ū":{"ha":772,"x_min":0,"x_max":0,"o":""},"Ŭ":{"ha":1003,"x_min":0,"x_max":0,"o":""},"ŭ":{"ha":772,"x_min":0,"x_max":0,"o":""},"Ů":{"ha":1003,"x_min":0,"x_max":0,"o":""},"ů":{"ha":772,"x_min":0,"x_max":0,"o":""},"Ű":{"ha":1003,"x_min":0,"x_max":0,"o":""},"ű":{"ha":772,"x_min":0,"x_max":0,"o":""},"Ų":{"ha":1003,"x_min":0,"x_max":0,"o":""},"ų":{"ha":772,"x_min":0,"x_max":0,"o":""},"Ŵ":{"ha":1311,"x_min":0,"x_max":0,"o":""},"ŵ":{"ha":1003,"x_min":0,"x_max":0,"o":""},"Ŷ":{"ha":926,"x_min":0,"x_max":0,"o":""},"ŷ":{"ha":694,"x_min":0,"x_max":0,"o":""},"Ź":{"ha":848,"x_min":0,"x_max":0,"o":""},"ź":{"ha":694,"x_min":0,"x_max":0,"o":""},"Ż":{"ha":848,"x_min":0,"x_max":0,"o":""},"ż":{"ha":694,"x_min":0,"x_max":0,"o":""},"ſ":{"ha":309,"x_min":0,"x_max":0,"o":""},"Ǻ":{"ha":926,"x_min":0,"x_max":0,"o":""},"ǻ":{"ha":772,"x_min":0,"x_max":0,"o":""},"Ǽ":{"ha":1389,"x_min":0,"x_max":0,"o":""},"ǽ":{"ha":1235,"x_min":0,"x_max":0,"o":""},"Ǿ":{"ha":1080,"x_min":0,"x_max":0,"o":""},"ǿ":{"ha":848,"x_min":0,"x_max":0,"o":""},"΄":{"ha":463,"x_min":0,"x_max":0,"o":""},"΅":{"ha":463,"x_min":0,"x_max":0,"o":""},"Ά":{"ha":927,"x_min":0,"x_max":0,"o":""},"·":{"ha":386,"x_min":0,"x_max":0,"o":""},"Έ":{"ha":1089,"x_min":0,"x_max":0,"o":""},"Ή":{"ha":1164,"x_min":0,"x_max":0,"o":""},"Ί":{"ha":533,"x_min":0,"x_max":0,"o":""},"Ό":{"ha":1076,"x_min":0,"x_max":0,"o":""},"Ύ":{"ha":1188,"x_min":0,"x_max":0,"o":""},"Ώ":{"ha":1045,"x_min":0,"x_max":0,"o":""},"ΐ":{"ha":309,"x_min":0,"x_max":0,"o":""},"Α":{"ha":926,"x_min":0,"x_max":0,"o":""},"Β":{"ha":926,"x_min":0,"x_max":0,"o":""},"Γ":{"ha":765,"x_min":0,"x_max":0,"o":""},"Δ":{"ha":928,"x_min":0,"x_max":0,"o":""},"Ε":{"ha":926,"x_min":0,"x_max":0,"o":""},"Ζ":{"ha":848,"x_min":0,"x_max":0,"o":""},"Η":{"ha":1003,"x_min":0,"x_max":0,"o":""},"Θ":{"ha":1080,"x_min":0,"x_max":0,"o":""},"Ι":{"ha":386,"x_min":0,"x_max":0,"o":""},"Κ":{"ha":926,"x_min":0,"x_max":0,"o":""},"Λ":{"ha":928,"x_min":0,"x_max":0,"o":""},"Μ":{"ha":1157,"x_min":0,"x_max":0,"o":""},"Ν":{"ha":1003,"x_min":0,"x_max":0,"o":""},"Ξ":{"ha":903,"x_min":0,"x_max":0,"o":""},"Ο":{"ha":1080,"x_min":0,"x_max":0,"o":""},"Π":{"ha":1003,"x_min":0,"x_max":0,"o":""},"Ρ":{"ha":926,"x_min":0,"x_max":0,"o":""},"Σ":{"ha":859,"x_min":0,"x_max":0,"o":""},"Τ":{"ha":848,"x_min":0,"x_max":0,"o":""},"Υ":{"ha":926,"x_min":0,"x_max":0,"o":""},"Φ":{"ha":1108,"x_min":0,"x_max":0,"o":""},"Χ":{"ha":926,"x_min":0,"x_max":0,"o":""},"Ψ":{"ha":1160,"x_min":0,"x_max":0,"o":""},"Ω":{"ha":1038,"x_min":0,"x_max":0,"o":""},"Ϊ":{"ha":386,"x_min":0,"x_max":0,"o":""},"Ϋ":{"ha":926,"x_min":0,"x_max":0,"o":""},"ά":{"ha":803,"x_min":0,"x_max":0,"o":""},"έ":{"ha":619,"x_min":0,"x_max":0,"o":""},"ή":{"ha":772,"x_min":0,"x_max":0,"o":""},"ί":{"ha":309,"x_min":0,"x_max":0,"o":""},"ΰ":{"ha":760,"x_min":0,"x_max":0,"o":""},"α":{"ha":803,"x_min":0,"x_max":0,"o":""},"β":{"ha":799,"x_min":0,"x_max":0,"o":""},"γ":{"ha":694,"x_min":0,"x_max":0,"o":""},"δ":{"ha":773,"x_min":0,"x_max":0,"o":""},"ε":{"ha":619,"x_min":0,"x_max":0,"o":""},"ζ":{"ha":612,"x_min":0,"x_max":0,"o":""},"η":{"ha":772,"x_min":0,"x_max":0,"o":""},"θ":{"ha":772,"x_min":0,"x_max":0,"o":""},"ι":{"ha":309,"x_min":0,"x_max":0,"o":""},"κ":{"ha":694,"x_min":0,"x_max":0,"o":""},"λ":{"ha":694,"x_min":0,"x_max":0,"o":""},"μ":{"ha":800,"x_min":0,"x_max":0,"o":""},"ν":{"ha":694,"x_min":0,"x_max":0,"o":""},"ξ":{"ha":622,"x_min":0,"x_max":0,"o":""},"ο":{"ha":772,"x_min":0,"x_max":0,"o":""},"π":{"ha":958,"x_min":0,"x_max":0,"o":""},"ρ":{"ha":790,"x_min":0,"x_max":0,"o":""},"ς":{"ha":669,"x_min":0,"x_max":0,"o":""},"σ":{"ha":857,"x_min":0,"x_max":0,"o":""},"τ":{"ha":549,"x_min":0,"x_max":0,"o":""},"υ":{"ha":760,"x_min":0,"x_max":0,"o":""},"φ":{"ha":901,"x_min":0,"x_max":0,"o":""},"χ":{"ha":729,"x_min":0,"x_max":0,"o":""},"ψ":{"ha":990,"x_min":0,"x_max":0,"o":""},"ω":{"ha":1084,"x_min":0,"x_max":0,"o":""},"ϊ":{"ha":309,"x_min":0,"x_max":0,"o":""},"ϋ":{"ha":760,"x_min":0,"x_max":0,"o":""},"ό":{"ha":772,"x_min":0,"x_max":0,"o":""},"ύ":{"ha":760,"x_min":0,"x_max":0,"o":""},"ώ":{"ha":1084,"x_min":0,"x_max":0,"o":""},"Ё":{"ha":927,"x_min":0,"x_max":0,"o":""},"Ђ":{"ha":1201,"x_min":0,"x_max":0,"o":""},"Ѓ":{"ha":752,"x_min":0,"x_max":0,"o":""},"Є":{"ha":998,"x_min":0,"x_max":0,"o":""},"Ѕ":{"ha":926,"x_min":0,"x_max":0,"o":""},"І":{"ha":386,"x_min":0,"x_max":0,"o":""},"Ї":{"ha":386,"x_min":0,"x_max":0,"o":""},"Ј":{"ha":694,"x_min":0,"x_max":0,"o":""},"Љ":{"ha":1468,"x_min":0,"x_max":0,"o":""},"Њ":{"ha":1403,"x_min":0,"x_max":0,"o":""},"Ћ":{"ha":1186,"x_min":0,"x_max":0,"o":""},"Ќ":{"ha":809,"x_min":0,"x_max":0,"o":""},"Ў":{"ha":882,"x_min":0,"x_max":0,"o":""},"Џ":{"ha":998,"x_min":0,"x_max":0,"o":""},"А":{"ha":926,"x_min":0,"x_max":0,"o":""},"Б":{"ha":911,"x_min":0,"x_max":0,"o":""},"В":{"ha":926,"x_min":0,"x_max":0,"o":""},"Г":{"ha":752,"x_min":0,"x_max":0,"o":""},"Д":{"ha":941,"x_min":0,"x_max":0,"o":""},"Е":{"ha":926,"x_min":0,"x_max":0,"o":""},"Ж":{"ha":1282,"x_min":0,"x_max":0,"o":""},"З":{"ha":839,"x_min":0,"x_max":0,"o":""},"И":{"ha":998,"x_min":0,"x_max":0,"o":""},"Й":{"ha":998,"x_min":0,"x_max":0,"o":""},"К":{"ha":809,"x_min":0,"x_max":0,"o":""},"Л":{"ha":911,"x_min":0,"x_max":0,"o":""},"М":{"ha":1157,"x_min":0,"x_max":0,"o":""},"Н":{"ha":1003,"x_min":0,"x_max":0,"o":""},"О":{"ha":1080,"x_min":0,"x_max":0,"o":""},"П":{"ha":998,"x_min":0,"x_max":0,"o":""},"Р":{"ha":926,"x_min":0,"x_max":0,"o":""},"С":{"ha":1003,"x_min":0,"x_max":0,"o":""},"Т":{"ha":848,"x_min":0,"x_max":0,"o":""},"У":{"ha":882,"x_min":0,"x_max":0,"o":""},"Ф":{"ha":1056,"x_min":0,"x_max":0,"o":""},"Х":{"ha":926,"x_min":0,"x_max":0,"o":""},"Ц":{"ha":1027,"x_min":0,"x_max":0,"o":""},"Ч":{"ha":926,"x_min":0,"x_max":0,"o":""},"Ш":{"ha":1273,"x_min":0,"x_max":0,"o":""},"Щ":{"ha":1302,"x_min":0,"x_max":0,"o":""},"Ъ":{"ha":1099,"x_min":0,"x_max":0,"o":""},"Ы":{"ha":1230,"x_min":0,"x_max":0,"o":""},"Ь":{"ha":911,"x_min":0,"x_max":0,"o":""},"Э":{"ha":998,"x_min":0,"x_max":0,"o":""},"Ю":{"ha":1403,"x_min":0,"x_max":0,"o":""},"Я":{"ha":1003,"x_min":0,"x_max":0,"o":""},"а":{"ha":772,"x_min":0,"x_max":0,"o":""},"б":{"ha":795,"x_min":0,"x_max":0,"o":""},"в":{"ha":738,"x_min":0,"x_max":0,"o":""},"г":{"ha":507,"x_min":0,"x_max":0,"o":""},"д":{"ha":810,"x_min":0,"x_max":0,"o":""},"е":{"ha":772,"x_min":0,"x_max":0,"o":""},"ж":{"ha":929,"x_min":0,"x_max":0,"o":""},"з":{"ha":637,"x_min":0,"x_max":0,"o":""},"и":{"ha":776,"x_min":0,"x_max":0,"o":""},"й":{"ha":776,"x_min":0,"x_max":0,"o":""},"к":{"ha":608,"x_min":0,"x_max":0,"o":""},"л":{"ha":810,"x_min":0,"x_max":0,"o":""},"м":{"ha":955,"x_min":0,"x_max":0,"o":""},"н":{"ha":767,"x_min":0,"x_max":0,"o":""},"о":{"ha":772,"x_min":0,"x_max":0,"o":""},"п":{"ha":752,"x_min":0,"x_max":0,"o":""},"р":{"ha":772,"x_min":0,"x_max":0,"o":""},"с":{"ha":694,"x_min":0,"x_max":0,"o":""},"т":{"ha":636,"x_min":0,"x_max":0,"o":""},"у":{"ha":694,"x_min":0,"x_max":0,"o":""},"ф":{"ha":1143,"x_min":0,"x_max":0,"o":""},"х":{"ha":694,"x_min":0,"x_max":0,"o":""},"ц":{"ha":795,"x_min":0,"x_max":0,"o":""},"ч":{"ha":724,"x_min":0,"x_max":0,"o":""},"ш":{"ha":1114,"x_min":0,"x_max":0,"o":""},"щ":{"ha":1143,"x_min":0,"x_max":0,"o":""},"ъ":{"ha":868,"x_min":0,"x_max":0,"o":""},"ы":{"ha":998,"x_min":0,"x_max":0,"o":""},"ь":{"ha":724,"x_min":0,"x_max":0,"o":""},"э":{"ha":709,"x_min":0,"x_max":0,"o":""},"ю":{"ha":1042,"x_min":0,"x_max":0,"o":""},"я":{"ha":752,"x_min":0,"x_max":0,"o":""},"ё":{"ha":772,"x_min":0,"x_max":0,"o":""},"ђ":{"ha":772,"x_min":0,"x_max":0,"o":""},"ѓ":{"ha":507,"x_min":0,"x_max":0,"o":""},"є":{"ha":709,"x_min":0,"x_max":0,"o":""},"ѕ":{"ha":694,"x_min":0,"x_max":0,"o":""},"і":{"ha":309,"x_min":0,"x_max":0,"o":""},"ї":{"ha":386,"x_min":0,"x_max":0,"o":""},"ј":{"ha":309,"x_min":0,"x_max":0,"o":""},"љ":{"ha":1259,"x_min":0,"x_max":0,"o":""},"њ":{"ha":1128,"x_min":0,"x_max":0,"o":""},"ћ":{"ha":772,"x_min":0,"x_max":0,"o":""},"ќ":{"ha":608,"x_min":0,"x_max":0,"o":""},"ў":{"ha":694,"x_min":0,"x_max":0,"o":""},"џ":{"ha":767,"x_min":0,"x_max":0,"o":""},"Ґ":{"ha":679,"x_min":0,"x_max":0,"o":""},"ґ":{"ha":571,"x_min":0,"x_max":0,"o":""},"Ẁ":{"ha":1311,"x_min":0,"x_max":0,"o":""},"ẁ":{"ha":1003,"x_min":0,"x_max":0,"o":""},"Ẃ":{"ha":1311,"x_min":0,"x_max":0,"o":""},"ẃ":{"ha":1003,"x_min":0,"x_max":0,"o":""},"Ẅ":{"ha":1311,"x_min":0,"x_max":0,"o":""},"ẅ":{"ha":1003,"x_min":0,"x_max":0,"o":""},"Ỳ":{"ha":926,"x_min":0,"x_max":0,"o":""},"ỳ":{"ha":694,"x_min":0,"x_max":0,"o":""},"―":{"ha":1389,"x_min":0,"x_max":0,"o":""},"‗":{"ha":767,"x_min":0,"x_max":0,"o":""},"‛":{"ha":309,"x_min":0,"x_max":0,"o":""},"′":{"ha":260,"x_min":0,"x_max":0,"o":""},"″":{"ha":492,"x_min":0,"x_max":0,"o":""},"‼":{"ha":694,"x_min":0,"x_max":0,"o":""},"‾":{"ha":463,"x_min":0,"x_max":0,"o":""},"ⁿ":{"ha":507,"x_min":0,"x_max":0,"o":""},"₤":{"ha":772,"x_min":0,"x_max":0,"o":""},"₧":{"ha":1519,"x_min":0,"x_max":0,"o":""},"℅":{"ha":1230,"x_min":0,"x_max":0,"o":""},"ℓ":{"ha":449,"x_min":0,"x_max":0,"o":""},"№":{"ha":1490,"x_min":0,"x_max":0,"o":""},"℮":{"ha":833,"x_min":0,"x_max":0,"o":""},"⅛":{"ha":1158,"x_min":0,"x_max":0,"o":""},"⅜":{"ha":1158,"x_min":0,"x_max":0,"o":""},"⅝":{"ha":1158,"x_min":0,"x_max":0,"o":""},"⅞":{"ha":1158,"x_min":0,"x_max":0,"o":""},"←":{"ha":1389,"x_min":0,"x_max":0,"o":""},"↑":{"ha":694,"x_min":0,"x_max":0,"o":""},"→":{"ha":1389,"x_min":0,"x_max":0,"o":""},"↓":{"ha":694,"x_min":0,"x_max":0,"o":""},"↔":{"ha":1389,"x_min":0,"x_max":0,"o":""},"↕":{"ha":694,"x_min":0,"x_max":0,"o":""},"↨":{"ha":694,"x_min":0,"x_max":0,"o":""},"∟":{"ha":1360,"x_min":0,"x_max":0,"o":""},"∩":{"ha":998,"x_min":0,"x_max":0,"o":""},"≡":{"ha":810,"x_min":0,"x_max":0,"o":""},"⌂":{"ha":839,"x_min":0,"x_max":0,"o":""},"⌐":{"ha":811,"x_min":0,"x_max":0,"o":""},"⌠":{"ha":839,"x_min":0,"x_max":0,"o":""},"⌡":{"ha":839,"x_min":0,"x_max":0,"o":""},"─":{"ha":984,"x_min":0,"x_max":0,"o":""},"│":{"ha":868,"x_min":0,"x_max":0,"o":""},"┌":{"ha":984,"x_min":0,"x_max":0,"o":""},"┐":{"ha":984,"x_min":0,"x_max":0,"o":""},"└":{"ha":984,"x_min":0,"x_max":0,"o":""},"┘":{"ha":984,"x_min":0,"x_max":0,"o":""},"├":{"ha":984,"x_min":0,"x_max":0,"o":""},"┤":{"ha":984,"x_min":0,"x_max":0,"o":""},"┬":{"ha":984,"x_min":0,"x_max":0,"o":""},"┴":{"ha":984,"x_min":0,"x_max":0,"o":""},"┼":{"ha":984,"x_min":0,"x_max":0,"o":""},"═":{"ha":984,"x_min":0,"x_max":0,"o":""},"║":{"ha":984,"x_min":0,"x_max":0,"o":""},"╒":{"ha":984,"x_min":0,"x_max":0,"o":""},"╓":{"ha":984,"x_min":0,"x_max":0,"o":""},"╔":{"ha":984,"x_min":0,"x_max":0,"o":""},"╕":{"ha":984,"x_min":0,"x_max":0,"o":""},"╖":{"ha":984,"x_min":0,"x_max":0,"o":""},"╗":{"ha":984,"x_min":0,"x_max":0,"o":""},"╘":{"ha":984,"x_min":0,"x_max":0,"o":""},"╙":{"ha":984,"x_min":0,"x_max":0,"o":""},"╚":{"ha":984,"x_min":0,"x_max":0,"o":""},"╛":{"ha":984,"x_min":0,"x_max":0,"o":""},"╜":{"ha":984,"x_min":0,"x_max":0,"o":""},"╝":{"ha":984,"x_min":0,"x_max":0,"o":""},"╞":{"ha":984,"x_min":0,"x_max":0,"o":""},"╟":{"ha":984,"x_min":0,"x_max":0,"o":""},"╠":{"ha":984,"x_min":0,"x_max":0,"o":""},"╡":{"ha":984,"x_min":0,"x_max":0,"o":""},"╢":{"ha":984,"x_min":0,"x_max":0,"o":""},"╣":{"ha":984,"x_min":0,"x_max":0,"o":""},"╤":{"ha":984,"x_min":0,"x_max":0,"o":""},"╥":{"ha":984,"x_min":0,"x_max":0,"o":""},"╦":{"ha":984,"x_min":0,"x_max":0,"o":""},"╧":{"ha":984,"x_min":0,"x_max":0,"o":""},"╨":{"ha":984,"x_min":0,"x_max":0,"o":""},"╩":{"ha":984,"x_min":0,"x_max":0,"o":""},"╪":{"ha":984,"x_min":0,"x_max":0,"o":""},"╫":{"ha":984,"x_min":0,"x_max":0,"o":""},"╬":{"ha":984,"x_min":0,"x_max":0,"o":""},"▀":{"ha":984,"x_min":0,"x_max":0,"o":""},"▄":{"ha":984,"x_min":0,"x_max":0,"o":""},"█":{"ha":984,"x_min":0,"x_max":0,"o":""},"▌":{"ha":984,"x_min":0,"x_max":0,"o":""},"▐":{"ha":984,"x_min":0,"x_max":0,"o":""},"░":{"ha":984,"x_min":0,"x_max":0,"o":""},"▒":{"ha":984,"x_min":0,"x_max":0,"o":""},"▓":{"ha":1013,"x_min":0,"x_max":0,"o":""},"■":{"ha":839,"x_min":0,"x_max":0,"o":""},"□":{"ha":839,"x_min":0,"x_max":0,"o":""},"▪":{"ha":492,"x_min":0,"x_max":0,"o":""},"▫":{"ha":492,"x_min":0,"x_max":0,"o":""},"▬":{"ha":1389,"x_min":0,"x_max":0,"o":""},"▲":{"ha":1375,"x_min":0,"x_max":0,"o":""},"►":{"ha":1375,"x_min":0,"x_max":0,"o":""},"▼":{"ha":1375,"x_min":0,"x_max":0,"o":""},"◄":{"ha":1375,"x_min":0,"x_max":0,"o":""},"○":{"ha":839,"x_min":0,"x_max":0,"o":""},"●":{"ha":839,"x_min":0,"x_max":0,"o":""},"◘":{"ha":839,"x_min":0,"x_max":0,"o":""},"◙":{"ha":839,"x_min":0,"x_max":0,"o":""},"◦":{"ha":492,"x_min":0,"x_max":0,"o":""},"☺":{"ha":1418,"x_min":0,"x_max":0,"o":""},"☻":{"ha":1461,"x_min":0,"x_max":0,"o":""},"☼":{"ha":1273,"x_min":0,"x_max":0,"o":""},"♀":{"ha":1042,"x_min":0,"x_max":0,"o":""},"♂":{"ha":1042,"x_min":0,"x_max":0,"o":""},"♠":{"ha":738,"x_min":0,"x_max":0,"o":""},"♣":{"ha":911,"x_min":0,"x_max":0,"o":""},"♥":{"ha":825,"x_min":0,"x_max":0,"o":""},"♦":{"ha":709,"x_min":0,"x_max":0,"o":""},"♪":{"ha":694,"x_min":0,"x_max":0,"o":""},"♫":{"ha":1042,"x_min":0,"x_max":0,"o":""},"":{"ha":463,"x_min":0,"x_max":0,"o":""},"":{"ha":463,"x_min":0,"x_max":0,"o":""}}}
